<?xml version="1.0" encoding="UTF-8"?>
<!-- Created with Grafika (https://www.grafika.cc/) -->
<svg xmlns="http://www.w3.org/2000/svg" xmlns:svg="http://www.w3.org/2000/svg" xmlns:xlink="http://www.w3.org/1999/xlink" width="2048" height="409.6" viewBox="0 0 300 60" preserveAspectRatio="xMidYMid meet">
	<rect x="0" y="0" width="300" height="60" fill="#FFFFFF" />
	<g opacity="1" transform="matrix(1, 0, 0, 1, 150, 30)">
		<g opacity="1" transform="matrix(0.20462198555469513, 0, 0, 0.20462195575237274, -134.26817321777344, -74.5447006225586)">
			<path d="M-12.15,457.66 C-27.97,450.62 -40.57,433.69 -37.9,415.78 L-38.76,351.79 C-47.93,347.81 -30.94,328.2 -28.09,318.69 C-10,291.85 19.35,272.95 51.01,267.32 C77.62,268.06 104.72,265.85 131.03,268.42 C171.3,278.92 205.76,309.93 216.23,350.75 C207.4,354.31 214.6,369.42 212.27,377.67 C211.39,394.88 214.07,412.84 210.89,429.56 C204.6,449.03 184.58,463.96 163.76,461 C150.08,464.42 152.25,448.55 152.54,439.84 L152.54,379.28 C164.25,368.1 183.12,376.07 195.2,382.9 C194.74,364.18 190.01,345.29 178.83,330.19 C168.21,318.63 158.13,306.34 142.89,300.82 C124.68,291.9 104.21,291.3 84.28,292.09 C63.64,290.67 42.4,293.21 24.5,304.26 C12.6,310.62 3.1,321.6 -5.15,332 C-11.98,345.58 -21.1,355.23 -19.75,371.4 C-27.89,392.55 -10.95,372.45 -0.65,374.81 C9.2,371.08 24.92,377.05 21.15,389.57 L21.15,455.35 C14.78,464.4 2.42,460.6 -6.85,460.15 L-12.15,457.66 ZM-26.03,374.36 C-14.46,362.29 -30.35,339.47 -33.46,358.61 L-33.46,395.21 C-27.84,389.39 -27.63,381.88 -26.03,374.36 ZM207.15,373.12 C205.58,364.67 212.51,347.72 198.43,351.79 C195.7,359.35 199.71,377.38 202.32,388.11 C210.09,406.85 205.97,377.6 207.15,373.12 ZM-17.12,342.83 C-3.86,312.88 25.3,290.52 57.83,286.94 C65.84,284.43 84.45,292.51 84.29,281.82 C87.07,264.63 61.43,275.82 50.16,273.47 C15.77,280.46 -15.99,302.19 -29.98,335.19 C-46.71,349.02 -19.65,350.44 -17.12,342.83 ZM59.77,455.76 C50.55,449.8 57.37,436.05 55.28,426.62 C56.12,416.25 53.61,404.48 56.48,394.95 C64.09,382.29 76.31,395.11 85.27,399.17 C97.73,407.85 114.69,411.39 122.59,425.29 C115.26,437.92 98.25,440.48 87.02,448.9 C78.47,451.35 68.05,464.54 59.77,455.76 ZM89.23,441.2 C110.77,434.48 125.33,419.97 95.48,411.78 C84.53,409.95 67.96,385.66 60.11,400.42 C60.73,417.63 61.27,434.84 62.01,452.04 C71.82,453.82 80.3,444.34 89.23,441.2 ZM304.54,456.88 C300.02,446.1 303.95,432.31 302.78,420.33 L303.56,315.1 C311.95,297.24 330.26,283.47 350.49,286.94 C365.45,290.37 377.15,301.86 382.34,316.5 C393.41,332.32 405.27,382.46 416.71,341.86 C428.1,322.89 433.09,296.66 456.82,288.76 C477.46,280.99 501.24,295.05 508.19,315.58 C510.53,340.97 508.52,367.4 509.19,393.2 L509.19,455.2 C501.8,463.55 488.41,457.42 478.34,459.29 C464.49,461.82 468.82,444.47 468.1,435.98 L467.38,364.63 C455.46,386.83 445.05,410.22 432.19,431.66 C423.97,440.74 413.34,446.07 400.56,443.93 C379.94,441.32 372.19,418.68 363.66,402.53 L344.52,364.75 C343.71,394.14 344.99,424.06 342.89,453.13 C339.73,464.6 325.15,457.23 316.28,459.29 C312.42,458.5 306.59,461.34 304.54,456.88 ZM337.24,399.99 L337.69,345.81 C351.51,355.84 355.95,381.15 366.72,396.15 C376.28,410.35 379.26,432.18 397.64,437.69 C414.04,443.44 430.21,429.82 435.19,414.55 L469.09,346.97 C478.46,346.85 471,364.96 473.52,372.26 L474.21,453.32 C483.57,452.46 497.55,456.39 504.07,452.6 C503.59,408.23 505.02,363.44 503.36,319.33 C498.19,299.43 475.19,285.91 455.73,295.61 C441.68,300.09 436.27,316.46 429.69,328.45 C421.09,340.1 414.92,371.73 403.55,368.96 C384.35,343.05 380.43,296.27 342.17,292.1 C323.66,293.28 305.61,311.1 308.58,330.46 C308.68,370.61 307.08,411.06 308.22,451.02 C313.01,458.12 326.73,452.22 335.05,454.17 C339.34,448.16 335.67,434.12 337.03,425.17 L337.24,399.99 ZM399.33,430.26 C391.82,431.32 379.53,412.83 390.69,416.43 C395.98,427.22 411.86,429.1 418.52,418.83 C437.05,406.82 411.41,441 399.33,430.26 ZM363.56,374.11 C361.57,365.84 336.25,330.58 350.92,337.1 C362.69,361.31 376.92,384.78 386.33,409.81 C376.33,409.7 376.06,393.73 370.13,387 L363.56,374.11 ZM425.51,408.53 C436.98,383.57 449.96,359.33 462.26,334.78 C472.68,345.25 442.61,377.06 437.7,395.08 C433.67,397.97 432.55,414.39 425.51,408.53 ZM389.11,396.51 C376.5,372.51 364.31,348.28 351.74,324.26 C368.6,326.82 375.61,368.22 389.21,384.31 C391.16,387.65 400.28,400.26 389.11,396.51 ZM418.76,395.02 C424.51,376.24 437.26,359.14 445.2,340.82 C448,335.64 455.37,315.94 459.4,325.92 C447.2,349.51 435.03,373.12 422.9,396.76 C420.18,396.98 417.53,400.63 418.76,395.02 ZM378.28,348.43 L359.16,310.95 C375.89,312.33 380.47,350.7 392.81,364.14 C405.01,375.97 400.84,397.61 391.98,375.28 L378.28,348.43 ZM410.22,384.2 C422.4,358.79 434.02,332.21 449.46,308.93 C456.85,314.41 442.59,325.94 441.28,333.86 L414.73,385.92 C413.39,385.3 408.84,387.44 410.22,384.2 ZM533.49,455.9 C528.66,444.58 532.7,430.71 531.37,418.38 L531.37,343.5 C539.2,333.27 551.87,337.03 563.03,336.43 C575.19,340.59 569.28,354.14 570.62,363.93 L570.62,455.2 C563.55,463.46 550.58,457.49 540.83,459.29 C537.22,459.47 534.66,460.12 533.49,455.9 ZM565.1,399.14 L564.65,344.11 C556.96,346.68 538.59,338.48 539.01,349.23 L538.15,454.17 C546.53,452.86 560.04,456.64 565.53,452.47 L565.1,399.14 ZM594.6,456.84 C594.96,443.17 614.18,428.82 620.92,415.04 C638.55,391 656.04,366.85 673.57,342.74 C654.62,353.01 637.94,361.96 628.55,334.05 C619.41,316.83 599.07,301.17 595.5,282.95 C601.39,276.6 615.21,281.78 624.32,280.12 C636.8,276.04 640.5,289.02 646.9,296.78 L675.24,336.43 C688.44,332.47 693.31,312.11 703.97,302.97 C712.75,295.83 715.79,276.79 729.71,280.22 L759.18,280.97 C762.11,295.6 742.91,304.56 738.26,317.34 C718.45,344.24 699.18,371.53 679.29,398.37 C696.94,391.5 711.38,372.03 722.93,400.24 C734.44,418.09 750.61,434.86 759.92,453.27 C759.79,463.97 743.51,456.05 736.18,458.44 C724.53,460.68 715.76,457.24 710.86,446.09 C700.71,432.39 690.75,418.56 680.83,404.69 C661.8,406.21 658.12,438.03 643.08,449.29 C638.48,463.09 624.99,458.77 614.05,459.29 C608.03,457.88 598.63,462.27 594.6,456.84 ZM634.87,450.33 C641.02,434.52 681.15,406.75 656.24,399.75 C644.99,379.48 637.13,403.84 628.44,414.16 C618.66,430.42 585.06,461.31 623.22,454.17 C627.88,454.11 632.42,455.42 634.87,450.33 ZM651.24,346.01 C654.77,333.16 630.8,316.23 624.78,302.14 C619.56,294.07 609.8,277.71 602.44,287.87 C618.43,305.31 631.66,340.13 651.24,346.01 ZM721.8,330.39 C727.38,317.45 766.51,281.98 741.12,286.8 C727.65,305.43 714.54,324.34 700.29,342.4 C710.71,356.31 713.95,337.94 721.8,330.39 ZM674.71,342.4 C672.53,339.34 672.53,345.46 674.71,342.4 ZM660.12,325.29 C648.74,313.37 642.07,289.68 626.27,285.24 C616.25,294.21 649.33,320.21 655.84,336.17 C661.49,347.04 675.81,335.4 662.31,328.26 L660.12,325.29 ZM705.51,326.74 C707.84,314.94 744.65,287.14 729.9,285.28 C715.57,285.26 712.37,306.73 702.22,314.78 C696.43,322.17 676.66,346.13 698.66,335.96 L701.82,331.82 L705.51,326.74 ZM785.97,457.24 C781.29,447.98 785.22,435.15 783.92,424.48 L783.92,341.74 C792.24,332.88 804.85,337.61 815.59,336.43 C827.74,340.59 821.84,354.14 823.17,363.93 L823.17,455.2 C816.08,463.47 803.08,457.49 793.31,459.29 C790.51,459.05 787.55,460.41 785.97,457.24 ZM817.2,398.71 L817.2,344.11 C808.86,346.6 790.1,338.58 789.85,349.23 C790.12,384.23 787.74,419.59 790.7,454.32 C798.72,451.49 817.34,458.89 817.2,448.2 L817.2,398.71 ZM847.4,457.24 C842.72,447.98 846.65,435.15 845.36,424.48 C845.77,389.54 844.53,354.3 845.97,319.55 C850.75,301.48 867.71,284.84 887.37,286.97 C899.57,286.51 911.69,293.33 918.14,303.71 C929.31,322.4 937.99,342.7 948.67,361.73 C964.43,338.86 970.11,306.67 994.4,290.93 C1014.55,279.67 1040.85,291.61 1049.48,312.35 C1053.02,329.57 1050.26,348.43 1051.35,366.29 L1051.98,454.5 C1046.17,463.78 1033.04,457.46 1023.73,459.29 C1011.61,462.26 1009.18,448.4 1010.88,439.4 L1010.87,362.88 C997.88,387.56 986.73,413.36 971.61,436.82 C958.96,445.24 941.2,447.56 928.65,438.04 C912.19,420.44 905.37,396.35 893.38,375.74 C886.88,358.54 886.33,366.92 886.99,380.49 L886.25,454.75 C880.19,463.8 866.85,457.37 857.43,459.29 C854.02,458.7 849.53,460.91 847.4,457.24 ZM880.79,399.01 L881.24,344.69 C899.08,369.53 910.23,399.97 926.04,426.57 C934.16,439.31 953.1,443.03 964.89,433.23 C976.66,425.16 979.19,408.93 986.98,397.35 C997.04,381.26 1003.63,359.47 1015.19,345.81 C1019.1,352.75 1015.94,366.83 1017.11,376.53 L1017.75,454.31 C1026.43,452.73 1040.03,455.94 1045.88,451.61 C1045.67,409.55 1047.71,367.37 1046.08,325.38 C1046.92,314.54 1039.51,305.87 1032.23,299.01 C1021.2,293.07 1007.75,288.44 996.81,296.69 C979.43,303.17 977.26,326.31 966.81,339.78 C959.72,346.47 952.24,387.13 943.07,363.55 C930.74,341.94 922.79,317.5 906.35,298.53 C895.31,291.76 881.34,288.86 870.09,296.87 C852.37,304.07 849.37,326.78 850.47,343.8 L850.47,451.9 C858.57,457.1 870.64,452.19 880.34,453.32 L880.79,399.01 ZM942.07,430.27 C931.88,431.31 922.29,405.18 936.91,420.04 C941.54,427.94 955.89,427.48 960.86,419.73 C975.51,405.21 963.04,437 950.33,431.13 C947.36,432.38 944.91,431.17 942.07,430.27 ZM906.23,374.09 C904.33,365.3 879.36,332.73 893.25,336.24 C904.74,360.47 919.37,383.74 928.97,408.44 C921.35,413.44 918.49,394.09 913.6,388.52 L906.23,374.09 ZM969.18,408.27 C969.56,399.3 978.04,389.99 981.4,380.9 L1004.91,334.78 C1014.53,344.78 987.31,373.96 983.31,389.92 C978.28,393.04 977.1,413.81 969.18,408.27 ZM926.96,386.34 C916.25,365.68 905.45,345.06 894.68,324.43 C905.79,316.55 908.62,348.2 916.61,354.16 C922.06,368.1 933.76,382.18 936.75,395.99 C932.14,402.65 929.57,387.8 926.96,386.34 ZM961.39,395.3 C967.12,377.36 978.8,360.85 986.66,343.44 C991.22,322.94 1010.16,316.23 995.85,337.99 C985.75,357.58 975.68,377.19 965.66,396.82 C963.23,396.86 960.05,400.6 961.39,395.3 ZM939.67,383.78 C929.17,360.1 907.56,330.87 905.04,309.25 C913.55,313.35 914.94,326.59 920.63,334.31 L945.86,383.82 C944.4,385.68 941.05,387.48 939.67,383.78 ZM952.86,384.25 C964.03,359.13 977.24,334.98 989.55,310.41 C1004.83,310.18 975.23,341.69 974.58,352.07 C968.06,362.72 964.11,376.67 956.13,385.43 C954.68,385.35 951.57,387.73 952.86,384.25 ZM1103.35,456.42 C1092.13,453.32 1084.5,442.51 1077.2,434.33 C1073.97,422.25 1067.14,410.24 1072.9,397.82 C1072.46,385.37 1086.18,376.43 1089.44,368.72 C1078.86,360.27 1073.11,348.72 1071.46,335.23 C1069.74,325.1 1073.8,313.88 1078.37,304.87 C1084.81,292.22 1099.07,283.88 1112.41,280.99 L1197.13,279.91 C1206.51,285.7 1200.17,298.88 1202,308.22 C1204.96,320.34 1191.11,322.77 1182.11,321.07 L1118.91,321.07 C1108.04,326.93 1115.22,340.1 1125.97,338.14 C1145.55,338.68 1165.65,337.07 1184.92,338.92 C1204.99,346.02 1211.91,372.47 1199.26,388.82 C1192.97,398.03 1181.74,403.28 1170.43,401.48 L1117.84,402.49 C1105.41,418 1125.68,421.43 1137.13,419.07 C1157.28,419.91 1178.47,417.88 1197.95,420.52 C1206.26,425.87 1200.19,437.96 1202,446.36 C1206.03,459.8 1192.11,460.67 1182.55,459.25 C1157.59,458.42 1132.12,460.6 1107.49,457.89 L1103.35,456.42 ZM1196.88,439.67 C1200.84,425.19 1192.39,423.11 1179.82,425.16 L1118.12,425.16 C1110.7,419.94 1102.32,408.61 1112.06,401.69 C1120.3,391.46 1134.64,397.96 1145.95,396.15 C1162.89,394.61 1183.79,401.98 1195.19,384.85 C1201.78,374.86 1202.16,360.25 1193.06,351.55 C1179.98,337.33 1159.77,345.3 1142.97,343.26 C1131.75,341.56 1117.1,348.12 1109.92,336.65 C1104.86,329.66 1109.21,313.77 1120.23,316.66 L1196.03,315.1 C1194.81,306.06 1198.39,292.29 1194.32,286.07 C1168.28,286.47 1141.82,284.02 1116.04,286.19 C1100.59,289.44 1085.64,298.54 1080.47,314.17 C1075.51,326.53 1076.35,342.33 1083.25,353.7 C1089.23,364.01 1097.07,368.3 1108.13,362.18 C1125.58,357.85 1144.03,361.93 1161.9,361.17 C1162.4,371.9 1144,364.28 1136.31,367.06 C1125.65,368.17 1113.64,366.17 1103.82,369.2 C1112.86,375.13 1136.75,371.65 1151.66,372.95 C1168.35,370.43 1160.72,382.32 1148.25,378.51 C1129.79,379.09 1111.24,380.54 1093.64,373.77 C1081.27,384.84 1074.65,401.58 1078.12,418.07 C1080.43,434.55 1093.81,448.74 1110.27,452.14 C1128.43,456.46 1147.9,452.96 1166.59,454.13 C1176.1,452.99 1190.23,456.47 1196.88,452.47 L1196.88,439.67 ZM1117.1,387.2 C1123.89,382.16 1137.46,386.53 1146.83,385.06 L1176.97,385.06 C1179.86,394.37 1159.54,386.96 1152.8,389.33 L1116.39,389.33 L1116.93,387.71 L1117.1,387.2 ZM1117.53,353.49 C1116.12,343.48 1134.12,350.43 1140.77,348.4 C1152.44,349.38 1165.26,346.41 1176.2,349.92 C1181.49,359.03 1160.27,353.91 1154.02,355.2 C1142.17,354.24 1128.18,357.13 1117.69,353.75 L1117.53,353.49 ZM1252.21,455.78 C1236.35,450.94 1224.92,436.62 1220.77,421.08 C1220.77,408.2 1219.04,394.94 1227,383.84 C1232.84,374.84 1242.63,368.74 1229.38,361.11 C1219.24,349.09 1220.55,333.28 1220.8,318.51 C1226.38,302.93 1236.79,289.14 1252.8,283.42 C1265.14,277.9 1279.96,282.14 1293.29,280.55 L1347.3,279.91 C1356.67,285.71 1350.34,298.88 1352.17,308.22 C1355.13,320.34 1341.28,322.77 1332.27,321.07 L1267.09,321.07 C1254.53,328.99 1268.22,342.07 1278.79,338.14 C1296.58,338.67 1314.87,337.09 1332.36,338.91 C1344.8,343.36 1354.1,355.95 1353.79,369.32 C1353.46,378.77 1348.61,390.5 1340.28,395.74 C1329.13,405.58 1312.9,399.81 1299.27,402 C1288.09,403.28 1274.99,400.88 1264.97,404.37 C1255.02,420.97 1277.36,418.51 1287.18,418.93 C1306.12,420.14 1325.05,421.07 1343.88,418.11 C1356.63,421.86 1351.01,435.54 1352.17,445.56 C1355.51,458 1342.87,461.44 1333.15,459.26 C1308.57,458.79 1283.67,459.99 1259.28,458.5 L1252.21,455.78 ZM1346.19,439.67 C1350.69,424.46 1339.35,424.75 1327.43,425.62 L1265.41,424.31 C1252.78,418.17 1254.15,400.95 1267.6,396.15 C1288.59,395.48 1310.4,397.47 1330.88,395.19 C1341.72,389.43 1349.92,377.09 1348.7,364.59 C1343.68,352.81 1333.44,340.44 1319.24,343.26 C1301.11,342.47 1281.75,344.82 1264.38,342.1 C1254.57,337.09 1253.88,324.54 1262.25,317.77 C1270.62,313.5 1282.85,317.19 1292.69,315.95 L1343.22,315.95 C1351.1,308.33 1344.87,295.93 1346.19,286.09 C1317.83,286.51 1289.16,285.26 1260.99,286.7 C1244,290.54 1232.31,304.49 1226.27,320.2 C1225.16,331.95 1224.7,344.31 1232.31,354.27 C1237.77,368.62 1251.68,365.69 1263.65,361.19 C1279.03,359.12 1294.82,361.47 1310.36,361.17 C1310.86,371.9 1292.46,364.36 1284.78,367.17 C1272.35,365.63 1235.9,371.03 1265.41,371.77 L1310.36,373.12 C1310.86,383.86 1292.45,375.62 1284.76,378.13 C1270.6,377.58 1255.91,380.2 1242.74,373.64 C1232.04,384.39 1223.29,398.67 1225.92,414.31 C1226.81,427.81 1235.48,439.71 1246.58,447.25 C1265.6,458.8 1289.14,452.09 1310.36,453.6 L1346.19,453.32 L1346.19,439.67 ZM1263.86,387.2 C1270.65,382.16 1284.21,386.53 1293.58,385.06 L1325.43,385.06 C1328.31,394.37 1308,386.96 1301.26,389.33 L1263.15,389.33 L1263.69,387.71 L1263.86,387.2 ZM1265.99,353.49 C1264.58,343.49 1282.58,350.47 1289.22,348.45 L1324.56,348.55 C1329.69,360.44 1308.83,353.25 1302.11,355.2 L1267.05,355.2 L1266.15,353.75 L1265.99,353.49 ZM57.96,374.7 C51.87,366.86 56.93,354.4 55.28,344.72 C56.2,335.15 53.48,323.96 56.54,315.34 C66.43,303.52 80.02,316.97 90,322.04 C98.7,330.16 126.26,335.67 118.66,350.68 C101.68,359.23 85.55,372.31 67.55,377.38 C63.98,377.09 59.97,378.79 57.96,374.7 ZM541.05,317.87 C530.31,312.17 526.51,293.62 538,286.74 C544.15,276.58 558.42,278.48 566.08,285.88 C574.01,292.05 573.4,305.6 569.02,313.58 C562.93,321.51 551.6,323.65 543.03,319.17 L541.6,318.23 L541.05,317.87 ZM789.73,315.27 C780.73,308.86 781.38,292.33 789.92,285.58 C799.74,275.93 817.13,278.67 822.35,292.13 C830.63,307.21 815.17,325.03 799.27,321.07 C794.48,322.51 792.94,317.71 789.73,315.27 Z" opacity="1" style="fill:#283618;" />
		</g>
		<path d="M-21.17,-8.87 C-21.58,-8.88 -22.38,-9.09 -22.94,-9.34 C-23.5,-9.6 -24.2,-10.11 -24.49,-10.47 C-24.77,-10.84 -25.14,-11.54 -25.3,-12.02 C-25.46,-12.5 -25.51,-13.29 -25.42,-13.79 C-25.31,-14.39 -24.86,-15.08 -24.02,-15.92 L-22.79,-17.15 L-21.32,-17.05 L-19.85,-16.94 L-18.93,-16.24 C-18.42,-15.85 -17.84,-15.13 -17.63,-14.64 C-17.41,-14.1 -17.3,-13.29 -17.37,-12.61 C-17.43,-11.99 -17.64,-11.15 -17.83,-10.74 C-18.05,-10.29 -18.63,-9.77 -19.3,-9.43 C-19.91,-9.12 -20.75,-8.87 -21.17,-8.87 Z" opacity="1" style="fill:#1CC601;" />
		<path d="M30,-8.99 L28.64,-8.99 L27.5,-10.16 C26.88,-10.8 26.28,-11.76 26.17,-12.3 C26.04,-12.99 26.17,-13.68 26.62,-14.62 C26.98,-15.35 27.67,-16.19 28.17,-16.48 C28.67,-16.78 29.58,-17.02 30.2,-17.02 C30.82,-17.02 31.73,-16.81 32.23,-16.55 C32.73,-16.29 33.42,-15.53 33.76,-14.86 C34.1,-14.19 34.38,-13.35 34.38,-12.98 C34.38,-12.62 34.09,-11.8 33.73,-11.17 C33.38,-10.54 32.7,-9.79 32.22,-9.51 C31.74,-9.22 30.74,-8.99 30,-8.99 Z" opacity="1" style="fill:#1CC601;" />
		<path d="M-121.17,2.48 C-121.55,2.48 -122.08,2.08 -122.34,1.59 C-122.61,1.09 -122.82,-1.58 -122.82,-4.36 L-122.82,-9.41 L-121.98,-10.18 C-121.51,-10.6 -120.94,-10.95 -120.7,-10.95 C-120.47,-10.95 -118.5,-9.92 -116.34,-8.67 C-114.18,-7.42 -111.83,-5.95 -111.13,-5.4 C-110.43,-4.84 -109.86,-4.12 -109.86,-3.78 C-109.86,-3.44 -111.47,-2.22 -113.45,-1.06 C-115.42,0.1 -117.81,1.37 -118.76,1.76 C-119.7,2.16 -120.79,2.48 -121.17,2.48 Z" opacity="1" style="fill:#1CC601;" />
	</g>
</svg>