<?xml version="1.0" encoding="UTF-8"?>
<!-- Created with Grafika (https://www.grafika.cc/) -->
<svg xmlns="http://www.w3.org/2000/svg" xmlns:svg="http://www.w3.org/2000/svg" xmlns:xlink="http://www.w3.org/1999/xlink" width="2048" height="623.54" viewBox="0 0 259 78.86" preserveAspectRatio="xMidYMid meet">
	<g opacity="1" transform="matrix(1, 0, 0, 1, 244.9548797607422, -430.6562194824219)">
		<g opacity="1" transform="matrix(0.12168174982070923, 0, 0, 0.12168173491954803, -282.2459411621094, 373.05926513671875)">
			<path d="M616.48,1115.91 C592.52,1111.13 569.81,1099.32 549.82,1085.99 C530.18,1065.03 505.33,1047.76 496.42,1019.19 C476.94,982.43 477.69,938.99 463.51,900.14 C452.93,865.34 445.97,829.35 432.92,795.38 C411.41,789.88 411.5,817.46 405.29,831.14 C396.11,852.07 394.88,877.89 380.13,895.39 C359.25,905.39 340.29,884.51 327.31,869.83 C313.02,851.2 306.19,827.74 306.49,804.2 C305.75,772.61 321.26,742.35 345.21,721.97 C361.44,705.92 385.09,699.65 406.91,694.57 C414.79,653.37 428.72,613.18 453.93,579.21 C474.34,552.59 497.66,527.17 527.3,510.62 C557.35,491.04 592.76,477.78 628.29,473.71 C663.33,475.26 699.57,468.36 732.86,482.33 C779.38,496.59 822.64,523 853.81,560.75 C885.3,594.77 903.12,638.53 912.61,683.42 C913.97,701.19 937.58,697.67 949.81,705.04 C978.67,719.25 1002.8,743.62 1011.13,775.44 C1016.51,793.47 1013.65,813.91 1012.95,832.5 C1005.8,861.41 987.4,884.79 964.13,902.65 C944.91,915.16 921.98,920.67 898.95,918.8 C863.98,918.14 828.33,923.6 793.79,919.03 C767.11,912.67 766.91,879.22 756.98,858.21 C750.18,847.06 751.57,821.53 734.72,822.99 C717.31,829.99 720.96,854.97 714.05,870.24 C704.9,902.47 697.65,936.45 685.4,967.06 C675.86,980.69 653.63,982.74 643.11,969.59 C630.52,954.16 630.89,930.69 623.43,912.08 C611.49,873.36 604.62,832.53 590.39,794.88 C582.55,775.3 564.47,797.85 565.89,810.62 C557.53,854.31 543.05,897.11 534.37,940.33 C537.11,966.24 543.77,990.89 557.29,1013.33 C581.64,1044.99 621.17,1065.98 661.77,1063.26 C708.16,1065.54 753.08,1036.31 773.03,994.73 C783.17,978.5 778.72,955.47 793.29,941.75 C809.89,943.72 834.85,934.13 840.36,956.06 C841.47,973.78 834.23,993.22 828.84,1010.49 C811.43,1053.4 777.8,1089.5 734.06,1105.91 C701.75,1121.82 663.69,1124.14 628.53,1118.87 L616.48,1115.91 ZM684.73,1110.05 C728.27,1104.8 768.03,1081.86 796.25,1048.58 C814.69,1024.03 828.39,994 831.28,963.26 C835.59,944.31 810.08,951.38 798.81,950.03 C787.23,966.07 790.28,988.65 777.93,1005.07 C761.3,1038.72 727.73,1061.29 691.78,1070.22 C664.65,1072.39 635.73,1074.6 609.9,1063.55 C585.83,1054.46 563.36,1038.54 549.56,1016.34 C533.88,993.71 527.13,967.29 525.36,940.06 C527.08,912.43 538.24,885.21 544.36,857.94 C553.67,834.07 553.73,806.59 567.24,784.72 C578.72,774.97 599.08,780.12 600.45,796.35 C618.37,850.43 629.51,907.21 647.68,960.86 C657.67,973.22 681.15,967.83 681.34,949.72 C694.03,907.86 703.31,864.54 717.78,823.49 C726.17,804.84 754.24,812.86 757.85,831.42 C766.81,854.24 772.5,879.27 783.43,900.75 C796.87,919.29 820.88,908.91 840.28,911.13 C870.55,909.27 902.15,913.28 931.57,907.67 C952.85,900.59 969.78,887.33 984.04,870.26 C996.45,853.26 1007,832.37 1003.88,810.56 C1005.62,791.3 1003.67,772.9 992.37,756.68 C979.87,729.31 950.18,712.38 921.7,705.89 C897.02,704.37 905.03,672.85 896.46,656.7 C882.94,607.29 850.86,565.55 812.13,532.99 C773.96,502.56 726.01,486.61 678,480.64 C632.36,478.17 585.92,488.41 545.53,509.47 C520.16,524.74 495.82,541.24 477.02,564.47 C451.54,591.68 434.8,626.57 422.77,661.59 C417.31,677.23 423.64,705.52 400.53,706.48 C365.43,710.76 334.6,735.85 321.9,768.61 C310.87,786.95 318.49,809.63 316.22,830.01 C326.63,852.26 336.55,878.13 362.08,886.2 C382.12,894.13 382.37,863.43 388.65,850.91 C397.13,831.57 398.83,807.32 411.79,791.22 C420.8,779.52 442.45,783.56 444.5,798.84 C460.36,850.87 473.21,904.14 487.22,956.78 C490.99,982.46 496.95,1007.39 511.02,1029.56 C524.34,1048.79 541.26,1067.3 560.23,1081.24 C591.49,1103.72 631.47,1113.36 669.68,1112.49 L684.73,1110.05 ZM816.31,866.49 C798.51,849.47 798.26,821.66 788.24,799.86 C773.63,760.12 764.06,718.28 745.86,680.03 C729,671.1 711.93,683.91 711.59,702.05 C702.11,734.66 690.96,768.57 682.95,800.51 C674.43,814.18 658.16,820.9 646.95,805.99 C635.9,781.38 631.62,752.21 623.53,725.76 C616.32,695.79 606.26,664.84 600.1,635.75 C591.78,620.99 573.13,620.19 563.15,633.81 C548.43,686.93 535.84,740.97 519.99,793.56 C513.47,811.87 484.54,809.32 480.5,790.14 C472.48,754.31 454.37,719.01 459.14,681.65 C469.95,624.76 508.85,575.38 558.36,546.57 C589.49,529.69 624.18,517.08 660.05,520.83 C708.04,516.31 753.72,538.27 791.69,565.79 C813.49,589.11 837.58,610.8 849.56,641.16 C861.78,668.62 866.57,698.95 864.42,729.01 C861.88,752.82 893.16,755.45 908.14,766.6 C927.54,778.13 954.43,784.72 963.84,806.51 C964.61,826.26 939.63,832.94 925.15,840.78 C899.19,851.56 874.68,868.7 847.8,875.46 C835.87,874.7 823.23,879.49 816.31,866.49 ZM895.57,846.38 C915.76,836.21 936.77,827.51 955.55,814.79 C958.31,795.5 932.68,790.49 919.71,781.54 C900.8,770.42 878.71,762.47 861.76,749.39 C848.77,726.11 862.61,697 851.27,672.45 C839.65,627.92 810.08,589.6 772.78,563.14 C738.68,542.23 699.69,524.64 658.67,529.23 C634.84,526.71 612.29,532.09 590.32,540.97 C561.51,552.71 534.4,569.79 514.13,593.79 C488.04,618.54 474.41,653.56 466.73,687.95 C465.03,723.57 481.78,756.76 488.74,791.23 C498.53,805.24 514.29,794.5 515.33,780.48 C531.23,729.19 540.55,675.87 558.1,625.2 C571.14,614.02 591.87,610.5 602.95,626.27 C614.94,644.92 616.18,670.46 623.95,691.81 C632.87,728.47 640.75,765.41 652.43,801.32 C669.91,816.33 678,792.34 680.48,777.84 C691.2,746.22 697.23,712.16 709.42,681.64 C717.79,669.55 735.26,662.14 747.22,672.25 C767.6,689.97 767.66,720.19 778.45,743.8 C791.66,781.3 802.34,820.25 817.14,856.83 C831.67,880.04 860.26,864.72 878.35,854.79 L895.57,846.38 ZM1702.83,919.9 C1692.47,906.8 1701.05,886.53 1698.58,870.45 C1699.83,834.12 1697.79,796.98 1701.09,761.16 C1708.84,740.06 1724.74,723.59 1743.16,711.72 C1770.22,700.27 1801.9,701.66 1826.45,718.48 C1839.59,732.74 1849.19,706.97 1864.69,708.2 C1882.96,700.94 1905.04,703.6 1922.93,710.75 C1945.82,719.21 1963.14,741.02 1970.52,763.62 L1972.27,915.41 C1961.36,929.29 1941.54,925.97 1926.65,923.59 C1908.49,916.08 1919.71,893.27 1916.63,877.91 C1915.43,846.28 1919.07,813.82 1914.81,782.7 C1912.92,763.56 1887.43,757.08 1873.74,767.37 C1856.57,782.24 1866.97,806.66 1864.16,826.5 L1864.16,914.13 C1854.44,931.15 1834.54,923.57 1818.44,925.18 C1798.77,918.45 1808.32,896.51 1806.16,880.68 L1806.16,779.11 C1799.01,766.08 1779.43,755.24 1767.6,767.15 C1749.56,775.68 1755.91,795.31 1754.67,811.48 L1753.41,915.39 C1744.23,932.37 1723.19,922.64 1707.6,925.18 L1702.83,919.9 ZM1745.41,846.47 C1746.83,822.79 1744.52,798.09 1748.16,775.03 C1756.09,754.4 1782.14,746.97 1800.1,759.24 C1821.14,773.49 1812.8,803.19 1814.45,825.21 L1814.45,910.26 C1823.07,920.14 1845.16,920.39 1854.51,911.62 C1857.69,868.39 1854.97,822.71 1855.88,778.53 C1860.95,759.17 1880.86,750.71 1899.55,753.95 C1918.37,759.89 1927.41,780.44 1923.98,799.51 L1926.3,915.51 C1940.42,915.53 1967.08,923.69 1963.89,900.64 C1962.45,854.27 1964.45,807.01 1960.9,761.18 C1949.49,730.75 1918.48,712.35 1886.57,712.22 C1869.95,715.16 1852.11,719.15 1839.81,731.86 C1818.95,733.07 1804.98,707.83 1782.83,714.24 C1751.02,709.6 1722.12,732.05 1710.07,760.31 C1705.25,791.99 1708.64,825.96 1707,858.53 C1708.52,877.94 1702.81,898.66 1709.43,917.16 C1722.59,913.5 1750.76,924.45 1744.3,901.7 L1745.41,846.47 ZM2045.86,921.3 C2007.31,912.48 1981.87,871.67 1985.68,833.04 C1986.08,798.61 1980.09,758.89 2006.95,732.21 C2017.48,717.68 2037.49,712.4 2053.2,705.58 L2192.33,703.76 C2210.46,714.29 2201.99,735.83 2203.85,753.09 C2191.05,769.89 2167.7,759.29 2149.56,762.23 C2120.93,763.6 2091.18,759.45 2063.25,764.36 C2039.94,768.72 2039.32,795.39 2040.91,814.43 C2042.33,830.51 2034.92,850.25 2052.25,859.74 C2064.38,874.48 2086.93,864.06 2103.88,867.18 C2133.7,868.23 2164.85,865.07 2193.84,868.76 C2212.19,876.53 2200.6,899.88 2203.85,915.51 C2189.21,933.12 2162.33,922.05 2141.86,925.04 C2110.02,923.1 2076.92,928.91 2045.86,921.3 ZM2192.25,913.58 C2196.34,903.42 2202.62,874.64 2184.07,875.46 C2141.69,874.47 2098.21,877.4 2056.5,874.01 C2036.57,866.89 2029.47,845.6 2032.63,826.03 C2033.13,804.03 2028.07,778.01 2045.89,761.81 C2070.73,746.98 2101.12,756.75 2128.67,753.95 C2149.17,752.55 2172.3,756.76 2191.13,751.82 C2197.25,743.23 2201.09,711.24 2183.14,716.55 C2139.07,716.75 2094.52,714.22 2050.76,716.11 C2024.75,722.66 2003.94,742.63 1995.79,768.1 C1991.64,797.22 1995.17,828.04 1993.96,857.81 C2002.82,880.42 2017.95,901.65 2040.84,911.05 C2069.26,922.01 2100.92,914.22 2130.8,916.7 C2150.51,915.34 2172.55,919.61 2190.89,914.94 L2192.25,913.58 ZM2277.87,921.31 C2237.89,912.84 2213.22,869.87 2217.59,830.65 C2219.82,807.81 2215.55,783.27 2221.85,761.48 C2232.36,734.9 2255.53,713.82 2282.56,705.58 L2419.59,703.82 C2440.31,709.91 2431.21,732.11 2433.07,748.39 C2434.31,767.84 2407.63,761.11 2394.77,762.23 C2362.52,762.97 2329.68,760.77 2297.79,763.3 C2278.03,766.7 2269.95,788.81 2272.93,806.87 C2276.04,825.78 2266.62,850.11 2285.83,862.05 C2300.68,870.59 2321.88,864.24 2339.28,866.8 C2369,868.66 2400.87,865.48 2429.24,870.52 C2440.27,882.33 2431.59,902.24 2434.22,917.51 C2418.21,932.48 2393.93,922.04 2374.02,925.04 C2342.13,923.1 2308.98,928.9 2277.87,921.31 ZM2425.82,906.37 C2431.93,890.13 2424.29,869.54 2404.08,876.45 C2364.71,874.65 2324.12,876.8 2285.51,872.57 C2259.53,860.7 2264.76,828.79 2264.61,805.23 C2261.6,785.26 2272.05,759.43 2292.66,755.22 L2423.41,752.57 C2420.71,738.84 2435.03,708.82 2411.23,715.29 C2367.59,716.09 2323.26,713.77 2280.06,716.5 C2255.18,724.28 2235.06,744.49 2227.44,769.14 C2227.56,798.59 2224.44,828.67 2226.49,857.75 C2232.55,878.52 2246.49,895.49 2263.99,907.44 C2296.54,923.36 2333.22,914.12 2368.07,916.03 L2423.2,915.51 L2425.82,906.37 ZM1102.54,918.11 C1089.39,907.73 1099.65,885.17 1096.4,869.63 C1097.56,835.27 1094.06,800.14 1098.18,766.28 C1104.74,736.95 1130.08,714.65 1158.24,707 C1177.87,707.08 1198.24,703.97 1214.82,716.93 C1228.78,731.25 1240.82,716.06 1254.59,710.26 C1275.53,706.47 1299.2,703.12 1318.87,714.22 C1337.63,724.78 1352.93,741.68 1359.69,762.57 C1363.86,801.43 1360.31,842.01 1361.52,881.52 C1360.62,896.84 1367.54,919.78 1346.49,922.41 C1331.48,922.7 1307.45,926.23 1306.29,905.84 C1305.41,864.54 1308.02,822.39 1305.02,781.6 C1301.78,765.03 1285.47,763.35 1271.35,765 C1255.05,775.12 1257.23,792.78 1257.34,809.61 L1255.2,914.59 C1244.03,926.53 1224.68,923.05 1210.89,920.63 C1193.57,910.83 1204.36,887.75 1201.05,871.33 L1199.97,779.24 C1192.22,764.79 1170.8,758.02 1159.55,771.07 C1144.23,783.68 1154.69,806.39 1151.61,823.8 C1150.24,853.34 1154.28,884.52 1149.52,913.03 C1139.12,925.59 1117.57,924.9 1104.15,919.25 L1102.54,918.11 ZM1347.9,911.27 C1360.06,901.81 1349.89,878.98 1353.2,864.22 C1352.41,831.77 1354.69,798.66 1351.98,766.62 C1343.63,742.28 1323.6,721.63 1297.89,716.64 C1273.47,710.94 1248.28,720.45 1229.02,735.93 C1205.46,717.53 1173.24,708.01 1145.25,721.99 C1130.19,727.54 1119.99,744.01 1110.33,756.12 C1098.96,790.5 1107.37,827.43 1105.5,863.04 C1107.74,877.65 1101.96,899.97 1108.83,910.13 C1123.57,911.07 1148.93,917.06 1143.27,893.42 L1143.35,775.96 C1153.68,760.77 1166.63,751.52 1185.52,755.79 C1209.51,762.46 1211.52,790.7 1209.63,811.77 L1209.63,911.62 C1223.43,907.72 1253.18,919.4 1247.2,896.18 L1249.68,773.63 C1259.13,760.56 1275.33,748.54 1291.55,756.95 C1313.93,762.51 1316.73,788.31 1314.56,807.8 L1314.58,908.33 C1323.6,915.58 1337.91,916.47 1347.9,911.27 ZM1383.24,917.14 C1369.3,907.18 1380.12,885.41 1376.72,870.43 L1376.72,714.84 C1389.02,701.28 1408.29,709 1424.37,707 C1438.63,720.3 1428.42,742.42 1431.49,759.76 L1431.5,912.22 C1421.09,925.65 1401.88,923.91 1387.61,920.68 L1383.24,917.14 ZM1421.71,907.74 C1429.85,894.59 1422.87,874.07 1425.07,858.03 C1424.01,812.97 1426.42,767.04 1423.2,722.52 C1416.74,709.94 1390.79,712.14 1383.03,724.55 L1385.36,905.92 C1392.96,914.64 1412.73,914.96 1421.71,907.74 ZM1450.52,918.11 C1436.21,908.04 1447.12,886.72 1455.91,875.33 C1467.22,855.02 1482.34,835.78 1491.33,814.82 C1478.91,786.29 1456.68,760.5 1444.38,731.94 C1439.32,714.73 1454.84,701.93 1471.32,707.41 C1489.33,704.37 1501.74,711.12 1508.22,728.24 C1516.95,735.33 1524.85,772.46 1533.25,750.81 C1544.52,736.74 1548.82,712.97 1566.95,707 C1582.59,708.76 1603.16,700.4 1610.7,718.83 C1616.33,733.92 1597.71,748.38 1592.27,762.48 C1583.5,781.35 1566.04,797.82 1563.13,818.3 C1578.53,846.17 1599.67,871.62 1611.53,900.98 C1615.74,917.9 1593.01,926.13 1578.56,922.41 C1553.55,927.99 1547.31,897 1535.36,881.43 C1526.69,855.83 1516.77,886.15 1509.73,896.59 C1503.31,913.59 1488.28,926.94 1469.23,922.41 C1462.32,922.28 1455.66,923.99 1450.52,918.11 ZM1484.71,912.49 C1499.17,906.69 1502.1,885.85 1511.9,873.97 C1516.04,857.51 1531.15,848.82 1538.72,868.19 C1549.03,882.17 1554.02,902.37 1567.62,912.5 C1578.99,915.76 1605.04,917.26 1601.8,899.42 C1585.54,870.13 1565.19,842.82 1551.61,812.24 C1567.84,783.43 1587.94,755.7 1601.8,726.23 C1602.67,709.63 1574.07,713.78 1563.69,719.22 C1551.01,734.01 1543.24,753.87 1532.37,770.52 C1514.13,773.1 1512.53,746.85 1502.17,735.78 C1496.39,720.38 1484.62,711.09 1467.98,715.29 C1446.93,711.84 1451.79,736.93 1462.51,746.4 L1502.99,814.79 C1486.7,843.98 1466.6,872.13 1452.66,901.97 C1450.35,915.81 1475.57,915.22 1484.71,912.49 ZM1637.7,920.5 C1618.5,912.54 1629.53,887.73 1626.65,871.65 L1626.65,716.14 C1637.25,700.71 1657.02,709.11 1672.75,707 C1689.54,719.8 1678.94,743.15 1681.89,761.29 L1681.89,910.97 C1669.78,925.19 1654.48,923.9 1637.7,920.5 ZM1671.49,907.47 C1676.27,881.02 1672.16,851.85 1673.55,824.37 L1673.6,721.91 C1665.84,711.86 1640.36,711.28 1634.88,722.56 L1636.32,909.99 C1647.35,910.31 1663.3,917.26 1671.49,907.47 ZM2073.4,837.02 C2059.98,829.72 2062.36,807.69 2068.57,796.89 C2079.21,779.2 2102.19,790.04 2119.2,787.09 L2195.44,787.09 C2209.85,800.67 2201.86,820.16 2202.17,837.47 C2186.16,852.37 2161.91,842.04 2142.04,845.09 C2121.72,843.85 2099.51,847.56 2080.36,843.25 L2073.4,837.02 ZM2192.87,831.28 C2196.33,821.14 2201.14,793.17 2183.93,795.38 C2150.17,796.27 2115.51,793.61 2082.3,796.68 C2067.52,802 2068.8,824.18 2079.44,833.64 C2115.88,839.33 2153.38,834.13 2190.25,835.42 L2191.73,833.08 L2192.87,831.28 ZM2309.1,841.23 C2291.1,832.13 2289.47,803.23 2305.69,791.36 C2317.65,781.4 2338.2,789.91 2353.48,787.09 C2377.28,788.45 2403.51,784.35 2425.79,789.14 C2439.76,800.47 2430.28,820.84 2433.07,836.49 C2415.65,852.63 2389.82,842.02 2368.25,844.99 C2348.98,842.71 2326.71,849.54 2309.1,841.23 ZM2420.27,833.27 C2427.68,825.78 2429.52,791.47 2412.36,796.6 L2314.44,795.26 C2296.81,804.12 2300.37,833.28 2320.31,836.08 C2351.88,837.05 2383.76,836.44 2415.45,836.8 L2420.27,833.27 ZM1384.63,688.3 C1364.43,674.63 1369.57,639.78 1394.08,634.02 C1409.8,626.58 1422.35,637.7 1431.75,649.63 C1436.94,664.79 1433.19,685.89 1415.17,691.36 C1406.21,693.98 1391.7,695.88 1384.63,688.3 ZM1418.27,678.13 C1432.93,667.94 1424.04,642.03 1405.98,642.06 C1389.82,639.16 1375.28,658.65 1383.4,673.62 C1388.18,685.77 1410.82,690.58 1418.27,678.13 ZM1632.48,686.12 C1613.1,673.86 1620.79,639.81 1642.25,634.22 C1666.15,623.11 1696.26,653.65 1680.52,676.59 C1674.75,694.02 1650.36,698.16 1636.66,689.64 L1634.55,687.86 L1632.48,686.12 ZM1666.32,679.18 C1680.44,671.98 1674.34,646.91 1660.95,642.93 C1646.15,639.08 1629.22,647.84 1630.49,664.42 C1628.61,681.62 1655.4,692.32 1666.32,679.18 Z" opacity="1" style="fill:#000000;" />
		</g>
		<g opacity="1">
			<g opacity="1">
				<path d="M-200.33,508.13 C-201.23,508.25 -203.06,508.19 -204.38,507.99 C-205.7,507.8 -207.87,507.28 -209.21,506.84 C-210.54,506.4 -212.69,505.24 -213.99,504.26 C-215.29,503.28 -217.06,501.66 -217.92,500.65 C-218.78,499.65 -219.94,497.92 -220.5,496.82 C-221.06,495.72 -221.84,493.5 -222.23,491.88 C-222.63,490.26 -224.02,484.81 -225.33,479.77 C-226.64,474.72 -228.02,470.11 -228.38,469.53 C-228.83,468.83 -229.51,468.47 -230.42,468.47 C-231.3,468.47 -232.06,468.84 -232.52,469.5 C-232.91,470.07 -233.88,472.56 -234.67,475.03 C-235.46,477.51 -236.29,479.82 -236.51,480.18 L-236.93,480.83 L-238.19,480.52 C-238.89,480.34 -239.96,479.66 -240.58,478.99 C-241.19,478.33 -242.13,476.89 -242.65,475.8 C-243.27,474.53 -243.61,472.88 -243.61,471.18 C-243.61,469.72 -243.39,467.94 -243.12,467.21 C-242.84,466.48 -242.08,465.11 -241.43,464.16 C-240.78,463.21 -239.43,461.89 -238.43,461.23 C-237.44,460.57 -235.66,459.79 -234.49,459.5 C-233.31,459.2 -232.13,458.7 -231.87,458.38 C-231.6,458.06 -231.17,456.66 -230.9,455.27 C-230.64,453.89 -229.6,451.05 -228.59,448.97 C-227.57,446.89 -225.75,444.02 -224.53,442.6 C-223.31,441.18 -221.12,439.08 -219.67,437.94 C-218.22,436.81 -215.67,435.25 -214.01,434.49 C-212.35,433.73 -209.59,432.81 -207.89,432.45 C-206.19,432.09 -203.4,431.79 -201.7,431.78 C-199.99,431.78 -196.96,432.19 -194.97,432.7 C-192.97,433.21 -189.82,434.42 -187.95,435.38 L-184.56,437.13 L-181.03,440.69 C-178.74,442.99 -176.89,445.4 -175.78,447.54 C-174.84,449.35 -173.74,451.99 -173.36,453.42 C-172.97,454.84 -172.53,456.57 -172.37,457.26 L-172.1,458.52 L-169.14,459.5 C-167.51,460.04 -165.39,461.14 -164.42,461.94 C-163.45,462.74 -162.13,464.42 -161.49,465.68 L-160.33,467.97 L-160.34,471.16 C-160.35,473.25 -160.66,475.02 -161.23,476.28 C-161.71,477.35 -162.88,478.98 -163.82,479.93 C-164.76,480.87 -166.32,482.04 -167.29,482.54 L-169.04,483.43 L-177.11,483.6 L-185.17,483.76 L-186.12,482.9 C-186.65,482.43 -187.77,480.03 -188.62,477.56 L-190.16,473.08 L-191.22,472.39 C-191.8,472.01 -192.76,471.76 -193.36,471.85 C-193.96,471.93 -194.69,472.54 -195.02,473.22 C-195.34,473.89 -196.56,477.9 -197.73,482.13 C-198.9,486.36 -200.12,489.99 -200.44,490.2 C-200.77,490.4 -201.41,490.58 -201.88,490.58 C-202.4,490.58 -202.98,489.98 -203.38,489.02 C-203.74,488.15 -205.09,483.66 -206.38,479.02 C-207.67,474.38 -208.94,470.01 -209.22,469.3 L-209.71,468 L-211.36,468 L-213.01,468 L-213.7,469.06 C-214.08,469.64 -214.63,471.18 -214.91,472.47 C-215.2,473.77 -215.95,476.62 -216.58,478.82 C-217.21,481.02 -217.93,483.9 -218.17,485.22 L-218.62,487.62 L-217.97,490.74 C-217.61,492.45 -216.79,494.76 -216.14,495.87 C-215.49,496.98 -214.26,498.56 -213.4,499.39 C-212.55,500.21 -210.58,501.48 -209.03,502.2 L-206.21,503.52 L-201.74,503.52 L-197.27,503.53 L-194.65,502.24 C-193.21,501.53 -191.23,500.16 -190.25,499.18 C-189.27,498.21 -188.13,496.77 -187.7,496 C-187.28,495.22 -186.5,493.32 -185.98,491.76 L-185.04,488.94 L-183.71,488.79 C-182.99,488.71 -182.11,488.87 -181.78,489.15 L-181.16,489.66 L-181.57,491.89 C-181.79,493.11 -182.64,495.44 -183.46,497.06 C-184.28,498.68 -185.92,500.92 -187.11,502.03 C-188.31,503.15 -190.23,504.61 -191.39,505.29 C-192.55,505.96 -194.67,506.83 -196.09,507.21 C-197.52,507.6 -199.42,508.01 -200.33,508.13 ZM-179.91,479.65 L-177.51,479.43 L-171.48,476.51 L-165.46,473.59 L-165.01,472.41 L-164.56,471.23 L-165.26,470.2 C-165.64,469.64 -168.34,467.91 -171.26,466.36 L-176.57,463.53 L-176.88,459.43 C-177.05,457.17 -177.45,454.52 -177.77,453.55 C-178.08,452.57 -178.85,450.77 -179.46,449.54 C-180.08,448.31 -181.95,445.85 -183.63,444.07 L-186.69,440.83 L-190.57,438.89 L-194.45,436.95 L-197.97,436.42 C-199.92,436.14 -202.77,436.03 -204.33,436.19 C-205.88,436.35 -208.48,436.93 -210.1,437.46 C-211.72,438 -214.31,439.29 -215.86,440.32 C-217.4,441.35 -219.63,443.29 -220.81,444.63 C-221.99,445.97 -223.74,448.64 -224.7,450.57 L-226.44,454.07 L-226.42,457.63 L-226.4,461.18 L-225.02,465.83 L-223.64,470.47 L-222.61,470.94 C-222.04,471.2 -221.05,471.28 -220.41,471.12 C-219.77,470.96 -219.1,470.46 -218.92,470.01 C-218.74,469.55 -217.47,464.97 -216.08,459.82 C-214.7,454.67 -213.25,450.14 -212.87,449.76 C-212.41,449.31 -211.75,449.17 -210.96,449.36 L-209.76,449.67 L-209.06,452.13 C-208.68,453.48 -207.51,457.82 -206.48,461.75 C-205.44,465.69 -204.27,469.66 -203.89,470.58 L-203.2,472.24 L-201.84,472.24 C-201.09,472.24 -200.14,471.87 -199.74,471.41 C-199.33,470.96 -198.11,467.52 -197.02,463.77 C-195.93,460.02 -194.83,456.68 -194.57,456.36 C-194.31,456.03 -193.6,455.77 -192.99,455.77 C-192.34,455.77 -191.67,456.19 -191.34,456.79 C-191.04,457.36 -189.35,462.13 -187.58,467.41 C-185.8,472.68 -183.89,477.64 -183.33,478.43 L-182.31,479.87 L-179.91,479.65 Z" opacity="1" style="fill:#FFFFFF;" />
			</g>
		</g>
		<path d="M-119.45,484.12 C-120.03,484.19 -120.89,484.11 -121.36,483.93 L-122.2,483.61 L-122.2,475.83 L-122.2,468.05 L-122.8,466.87 L-123.4,465.69 L-124.77,465.17 C-125.68,464.82 -126.51,464.71 -127.22,464.85 C-127.81,464.96 -128.78,465.5 -129.37,466.06 L-130.45,467.08 L-130.48,474.53 C-130.5,478.63 -130.5,482.1 -130.47,482.24 C-130.45,482.39 -130.51,482.75 -130.6,483.06 L-130.78,483.62 L-132.91,483.72 L-135.04,483.82 L-135.02,475.95 L-135,468.09 L-135.5,467.03 C-135.78,466.45 -136.3,465.78 -136.66,465.54 C-137.03,465.31 -137.65,465.01 -138.04,464.88 C-138.43,464.76 -139.23,464.75 -139.81,464.86 C-140.4,464.97 -141.42,465.55 -142.08,466.15 L-143.28,467.23 L-143.28,475.3 L-143.28,483.37 L-144.09,483.68 C-144.57,483.86 -145.41,483.89 -146.15,483.74 L-147.41,483.49 L-147.6,476.63 C-147.71,472.85 -147.67,468.81 -147.52,467.65 L-147.25,465.55 L-146.15,464.05 C-145.54,463.23 -144.62,462.24 -144.09,461.85 C-143.56,461.46 -142.65,460.95 -142.06,460.72 C-141.47,460.48 -140.14,460.3 -139.1,460.31 L-137.2,460.33 L-134.94,461.45 L-132.68,462.57 L-130.45,461.43 L-128.23,460.29 L-126.21,460.3 L-124.18,460.31 L-122.78,460.95 C-122.01,461.3 -120.88,462.09 -120.26,462.7 C-119.65,463.31 -118.84,464.4 -118.46,465.11 L-117.77,466.4 L-117.7,474.67 L-117.62,482.95 L-118,483.47 C-118.21,483.75 -118.86,484.04 -119.45,484.12 Z" opacity="1" style="fill:#FFFFFF;" />
		<path d="M-111.31,483.95 C-111.83,483.94 -112.56,483.79 -112.92,483.61 L-113.57,483.3 L-113.72,472.4 L-113.86,461.51 L-113.12,460.82 C-112.66,460.39 -112,460.13 -111.36,460.13 C-110.8,460.13 -110.06,460.37 -109.71,460.67 L-109.06,461.2 L-109.03,472.04 L-109,482.88 L-109.67,483.42 C-110.04,483.72 -110.78,483.96 -111.31,483.95 Z" opacity="1" style="fill:#FFFFFF;" />
		<g opacity="1">
			<path d="M-102.67,484.13 C-103.24,484.2 -104,484.14 -104.36,483.99 C-104.73,483.83 -105.11,483.56 -105.22,483.39 C-105.32,483.22 -105.12,482.48 -104.75,481.76 C-104.39,481.04 -103.01,478.65 -101.68,476.44 C-100.36,474.23 -99.28,472.32 -99.28,472.21 C-99.28,472.09 -100.56,469.84 -102.14,467.21 C-103.71,464.58 -105.09,462.13 -105.2,461.77 C-105.34,461.35 -105.23,460.94 -104.92,460.62 C-104.62,460.32 -103.91,460.13 -103.1,460.13 L-101.77,460.13 L-100.89,460.87 C-100.41,461.28 -99.62,462.41 -99.13,463.39 C-98.64,464.37 -97.98,465.56 -97.66,466.03 L-97.07,466.89 L-96.3,466.8 L-95.53,466.7 L-94.27,464.48 C-93.58,463.26 -92.67,461.84 -92.25,461.31 L-91.48,460.36 L-89.93,460.21 L-88.39,460.07 L-87.88,460.58 L-87.36,461.09 L-88.01,462.37 C-88.36,463.07 -89.76,465.48 -91.12,467.71 L-93.58,471.78 L-92.73,473.52 C-92.26,474.48 -90.85,476.96 -89.6,479.03 C-88.34,481.11 -87.39,483 -87.48,483.24 C-87.57,483.48 -88.03,483.82 -88.5,484 C-88.96,484.18 -89.8,484.25 -90.37,484.16 C-90.93,484.07 -91.59,483.83 -91.83,483.63 C-92.07,483.43 -92.99,481.97 -93.87,480.4 L-95.46,477.53 L-96.15,477.36 C-96.53,477.26 -97.05,477.35 -97.3,477.56 C-97.55,477.77 -98.32,479.01 -98.99,480.3 C-99.67,481.6 -100.54,482.96 -100.93,483.33 C-101.32,483.69 -102.1,484.06 -102.67,484.13 Z" opacity="1" style="fill:#FFFFFF;" />
		</g>
		<path d="M-80.6,483.98 C-81.07,483.96 -81.78,483.9 -82.19,483.85 L-82.93,483.76 L-83.09,476.06 C-83.17,471.82 -83.24,466.66 -83.24,464.59 L-83.24,460.83 L-82.54,460.47 C-82.15,460.27 -81.5,460.1 -81.1,460.1 C-80.69,460.1 -79.98,460.26 -79.52,460.45 L-78.68,460.8 L-78.75,472.07 L-78.82,483.34 L-79.28,483.68 C-79.54,483.87 -80.13,484.01 -80.6,483.98 Z" opacity="1" style="fill:#FFFFFF;" />
		<path d="M-58.37,484.59 C-58.83,484.66 -59.58,484.6 -60.04,484.47 C-60.5,484.33 -61.02,484.1 -61.19,483.96 L-61.5,483.7 L-61.46,475.79 C-61.44,471.44 -61.5,467.66 -61.61,467.4 C-61.71,467.13 -62,466.62 -62.25,466.26 C-62.51,465.89 -63.13,465.38 -63.64,465.12 C-64.15,464.86 -65.02,464.65 -65.58,464.65 C-66.13,464.65 -67.05,464.87 -67.61,465.14 C-68.21,465.43 -68.86,466 -69.18,466.52 L-69.72,467.4 L-69.93,475.65 C-70.06,480.67 -70.24,484.02 -70.39,484.21 L-70.64,484.52 L-72.45,484.45 L-74.27,484.38 L-74.4,483.54 C-74.47,483.08 -74.47,478.94 -74.39,474.34 L-74.26,465.96 L-73.57,464.7 C-73.19,464.01 -72.35,462.95 -71.71,462.35 C-71.07,461.75 -69.99,461.01 -69.3,460.69 L-68.05,460.12 L-65.78,460.07 L-63.51,460.02 L-61.41,461.14 C-60.25,461.75 -59.08,462.25 -58.81,462.25 C-58.54,462.25 -58.01,461.99 -57.63,461.68 C-57.25,461.36 -56.32,460.86 -55.56,460.57 C-54.8,460.29 -53.57,460 -52.83,459.93 L-51.48,459.8 L-49.8,460.31 C-48.83,460.61 -47.62,461.2 -46.97,461.7 C-46.34,462.18 -45.63,462.8 -45.39,463.07 C-45.16,463.35 -44.69,464.02 -44.36,464.56 L-43.76,465.55 L-43.65,468.27 C-43.59,469.76 -43.49,473.81 -43.43,477.27 L-43.31,483.56 L-43.78,484.03 L-44.25,484.5 L-45.93,484.5 L-47.62,484.5 L-47.71,484.2 C-47.76,484.04 -47.87,480.3 -47.95,475.9 L-48.09,467.89 L-48.58,466.87 C-48.86,466.31 -49.41,465.61 -49.82,465.32 C-50.31,464.97 -51.01,464.76 -51.89,464.7 L-53.22,464.62 L-54.3,465.17 C-54.89,465.47 -55.62,466.09 -55.91,466.54 L-56.45,467.35 L-56.45,474.07 C-56.46,477.77 -56.52,481.53 -56.61,482.42 L-56.76,484.04 L-57.15,484.25 C-57.36,484.37 -57.91,484.52 -58.37,484.59 Z" opacity="1" style="fill:#FFFFFF;" />
		<path d="M-23.91,484.37 C-28.42,484.36 -32.5,484.22 -32.99,484.08 C-33.48,483.93 -34.38,483.5 -35,483.12 C-35.62,482.74 -36.57,481.91 -37.12,481.29 C-37.66,480.67 -38.41,479.58 -38.76,478.88 L-39.42,477.6 L-39.42,472.21 L-39.42,466.83 L-38.63,465.27 C-38.2,464.42 -37.25,463.18 -36.52,462.53 C-35.8,461.87 -34.67,461.11 -34.02,460.84 L-32.84,460.35 L-24.25,460.35 L-15.67,460.35 L-15.33,461.1 L-14.98,461.86 L-15.35,463.22 L-15.71,464.57 L-19.84,464.58 C-22.12,464.59 -25.73,464.63 -27.88,464.67 L-31.78,464.75 L-32.79,465.3 C-33.35,465.6 -34.07,466.4 -34.39,467.08 L-34.98,468.31 L-35.13,471.91 L-35.27,475.52 L-34.61,477.01 C-34.25,477.82 -33.54,478.76 -33.05,479.09 L-32.15,479.68 L-24,479.75 L-15.85,479.83 L-15.45,480.39 C-15.22,480.7 -15.04,481.18 -15.04,481.46 C-15.04,481.73 -15.19,482.51 -15.38,483.18 L-15.72,484.4 L-23.91,484.37 Z" opacity="1" style="fill:#FFFFFF;" />
		<path d="M2.79,484.43 L-2.75,484.53 L-4.24,484.19 C-5.06,484.01 -6.18,483.59 -6.74,483.27 C-7.3,482.94 -8.26,482.11 -8.88,481.43 C-9.5,480.75 -10.32,479.5 -10.7,478.66 L-11.4,477.13 L-11.25,471.83 L-11.09,466.53 L-10.48,465.27 C-10.14,464.58 -9.32,463.47 -8.65,462.8 C-7.99,462.14 -6.82,461.29 -6.06,460.92 L-4.68,460.25 L3.73,460.23 C8.35,460.23 12.27,460.31 12.43,460.41 L12.74,460.6 L12.61,462.47 C12.54,463.49 12.43,464.38 12.38,464.44 C12.32,464.49 8.75,464.61 4.44,464.69 L-3.39,464.85 L-4.35,465.34 L-5.3,465.83 L-6.03,467.12 L-6.75,468.42 L-6.75,472.31 L-6.75,476.2 L-6.15,477.36 C-5.8,478.05 -5.23,478.71 -4.77,478.98 L-3.99,479.44 L3.1,479.62 C7.01,479.72 10.49,479.74 10.85,479.67 C11.24,479.59 11.72,479.69 12.06,479.92 C12.37,480.12 12.76,480.67 12.91,481.13 L13.18,481.97 L12.88,483.14 L12.58,484.31 L10.45,484.32 C9.28,484.32 5.83,484.37 2.79,484.43 Z" opacity="1" style="fill:#FFFFFF;" />
		<g opacity="1">
			<path d="M-21.88,474.63 C-25.21,474.61 -28.25,474.53 -28.64,474.45 L-29.35,474.3 L-29.79,473.41 L-30.22,472.52 L-30.07,471.74 C-29.99,471.31 -29.71,470.75 -29.44,470.51 L-28.95,470.07 L-22.39,470 L-15.84,469.93 L-15.44,470.53 L-15.04,471.14 L-15.17,472.41 C-15.24,473.1 -15.42,473.89 -15.57,474.16 L-15.83,474.66 L-21.88,474.63 Z" opacity="1" style="fill:#FCA311;" />
		</g>
		<g opacity="1">
			<path d="M8.47,474.84 C6.83,474.81 4.19,474.76 2.59,474.72 L-0.31,474.64 L-0.87,474.28 C-1.18,474.08 -1.55,473.54 -1.7,473.09 C-1.85,472.64 -1.9,471.99 -1.81,471.64 C-1.72,471.29 -1.42,470.76 -1.14,470.46 L-0.63,469.92 L5.67,469.97 L11.97,470.03 L12.29,470.4 C12.46,470.6 12.68,471.06 12.76,471.41 C12.85,471.76 12.81,472.51 12.69,473.06 C12.56,473.61 12.23,474.25 11.95,474.48 L11.44,474.89 L8.47,474.84 Z" opacity="1" style="fill:#FCA311;" />
		</g>
		<g opacity="1">
			<path d="M-81.1,456.35 C-81.29,456.34 -81.71,456.23 -82.02,456.11 C-82.34,455.98 -82.84,455.65 -83.13,455.38 L-83.65,454.89 L-83.65,453.81 L-83.65,452.73 L-83.13,452.26 C-82.84,452 -82.38,451.66 -82.1,451.52 C-81.82,451.38 -81.26,451.26 -80.86,451.26 L-80.13,451.26 L-79.47,451.92 C-79.11,452.29 -78.74,452.96 -78.65,453.43 L-78.49,454.28 L-78.88,454.87 C-79.09,455.2 -79.6,455.66 -80.01,455.91 C-80.41,456.16 -80.9,456.36 -81.1,456.35 Z" opacity="1" style="fill:#FCA311;" />
		</g>
		<g opacity="1">
			<path d="M-111.37,456.34 C-111.8,456.34 -112.43,456.17 -112.76,455.97 C-113.1,455.76 -113.49,455.45 -113.64,455.28 C-113.78,455.1 -113.95,454.64 -114.02,454.26 C-114.09,453.8 -114,453.29 -113.77,452.79 C-113.57,452.37 -113.12,451.86 -112.78,451.65 C-112.44,451.44 -111.83,451.27 -111.42,451.27 C-111,451.27 -110.41,451.46 -110.01,451.73 C-109.63,451.98 -109.2,452.52 -109.04,452.94 C-108.87,453.37 -108.81,453.91 -108.89,454.24 C-108.97,454.54 -109.38,455.14 -109.81,455.57 L-110.58,456.34 L-111.37,456.34 Z" opacity="1" style="fill:#FCA311;" />
		</g>
	</g>
</svg>