<?xml version="1.0" encoding="UTF-8"?>
<!-- Created with Grafika (https://www.grafika.cc/) -->
<svg xmlns="http://www.w3.org/2000/svg" xmlns:svg="http://www.w3.org/2000/svg" xmlns:xlink="http://www.w3.org/1999/xlink" width="2048" height="290.77" viewBox="0 0 563.62 80.02" preserveAspectRatio="xMidYMid meet">
	<path d="M16.1,79.3 C9.57,78.1 4.12,73.49 1.7,67.4 C0.86,58.14 1.38,48.52 1.06,39.13 C1.71,35.46 -1.75,32.07 1.23,28.72 C4.64,20.84 9.73,13.9 16.86,9.01 C24.62,3.54 33.92,-0.97 43.63,0.18 C53.18,0.42 62.84,0.08 72.32,0.68 C87.49,6.11 101.51,18 105.07,34.27 C102.22,37.25 104.22,42 103.6,45.8 C103.41,52.58 103.87,59.5 103.28,66.19 C100.75,73.54 94,79.47 86,79.62 C82.41,80.91 77.15,79.06 77.84,74.67 L77.84,45.84 C82.55,40.44 89.7,43.55 95.2,45.57 C94.26,36.72 91.28,27.52 84.08,21.85 C79.15,15.59 71.05,13.54 63.71,11.44 C55.47,11.66 47.09,10.97 38.94,11.77 C31.4,13.62 24.08,17.2 19.22,23.43 C15.22,27.08 13.12,32.3 10.76,37.02 C10.45,41.14 6.92,48.44 13.23,43.9 C16.47,43.38 20.67,41.91 23.58,43.74 C27.61,44.96 25.87,49.27 26.26,52.44 L26.5,77.46 C23.65,80.12 19.7,79.59 16.1,79.3 ZM22.27,77.37 C26.73,75.8 23.98,70.32 24.74,66.82 C24.51,60.31 25.22,53.63 24.39,47.23 C21.98,43.03 16.15,44.97 12.5,46.46 C8.33,48.22 5.82,45.77 5.42,52.06 C1.85,51.79 3.48,56.36 3.23,59.64 C2.81,64.59 3.92,70.07 8.1,73.18 C11.72,76.22 17.53,78.94 22.27,77.37 ZM88.19,77.41 C94.92,76.11 99.85,70.3 101.49,63.94 L101.5,52.31 C97.33,54.35 98.49,46.81 95.09,48.05 C92.1,46.64 88.95,45.02 85.43,44.75 C81.95,43.78 78.23,46.58 79.58,50.36 L79.58,75.51 C80.95,79.46 84.96,77.96 88.19,77.41 ZM6.82,42.11 C8.7,40.64 6.72,33.17 4.81,36.44 C4.29,40.47 4.81,44.79 4.68,48.93 C5.3,46.64 5.61,44.21 6.82,42.11 ZM99.19,35.72 C95.59,36.1 99.15,44.18 99.21,47.45 C99.81,50.35 99.5,41.7 99.72,39.75 C99.49,38.47 100.43,36.56 99.19,35.72 ZM101.91,42.16 C101.24,38.8 101.89,50.41 101.91,42.16 ZM96.7,43.64 C95.27,42.99 97.43,46.22 96.7,43.64 ZM8.99,39.3 C8.57,34.85 8.56,44.15 8.99,39.3 ZM96.12,39.03 C94.69,38.37 96.86,41.61 96.12,39.03 ZM9.74,33.66 C7.76,31.35 8.04,39.44 9.74,33.66 ZM98.5,33.64 C101.78,34.96 103.53,35.88 102.02,31.02 C96.8,17.13 84.66,6.59 70.63,2.31 L50.43,1.76 C55.34,3.59 48.36,10.73 54.23,9.37 C62.32,9.61 70.61,9.77 77.73,14.31 C83.29,16.62 86.57,22.12 91.06,25.93 C93.32,28.05 94.56,39.65 96.36,33.9 C96.65,33.27 97.9,33.83 98.5,33.64 ZM3.46,33.47 C-0.45,31.76 5.07,37.11 3.46,33.47 ZM7.62,31.95 C11.41,30.12 11.51,24.41 15.03,21.92 C19.16,17.81 22.97,13.24 28.67,11.31 C34.67,7.97 41.79,7.11 48.54,8.15 C53.28,6.23 48.14,1.55 44.65,3.5 C37.86,4.03 31.07,4.85 25.1,8.45 C16.62,12.74 9.9,19.65 5.78,28.2 C2.61,30.16 4.29,33.18 7.62,31.95 ZM35.52,10.75 C32.73,10.08 36.39,12.29 35.52,10.75 ZM37.83,10.17 C35.03,9.5 38.7,11.71 37.83,10.17 ZM41.91,9.63 C37.56,9.41 42.16,10.56 41.91,9.63 ZM48.85,9.58 C40.46,9.54 51.35,10.3 48.85,9.58 ZM34.37,2.67 C31.57,2 35.24,4.21 34.37,2.67 ZM36.68,2.09 C33.88,1.42 37.55,3.64 36.68,2.09 ZM40.79,76.98 C37.23,74.79 39.49,69.93 38.74,66.45 C39.65,60.94 36.52,53.23 41.49,49.22 C46.96,48.37 50.92,53.3 55.71,55.1 C59.68,57.72 67.15,59.74 66.93,65.21 C63.15,71.18 55.37,72.03 49.93,76.02 C47.11,77.57 43.36,80.69 40.79,76.98 ZM44.79,76.57 C40.45,76.36 45.04,77.5 44.79,76.57 ZM47.07,75.38 C44.27,74.71 47.93,76.93 47.07,75.38 ZM51.2,71.07 C54.89,68.99 59.65,68.04 61.69,63.92 C58.88,59.55 52.54,59.82 49.05,55.95 C46.81,52.49 40.6,52.51 42.18,57.72 C43.6,62.6 39.69,77.18 47.07,73.05 C48.45,72.4 49.83,71.74 51.2,71.07 ZM40.72,71.01 C39.94,69.07 40.74,76.13 40.72,71.01 ZM64.41,63.24 C61.74,61.29 64.39,69.27 64.99,63.82 L64.58,63.41 L64.41,63.24 ZM40.75,60.04 C40.32,54.96 40.53,66.17 40.59,65.1 C40.83,63.43 40.94,61.73 40.75,60.04 ZM44.52,51.15 C38.88,51.07 46.55,51.93 44.52,51.15 ZM139.52,77.69 C137.71,74.85 139.26,70.81 138.78,67.5 L139.03,18.96 C142.61,12.75 148.68,7.24 156.25,7.68 C161.03,7.45 165.28,10.23 168.44,13.66 C172.5,18.52 174.06,25.23 177.47,30.6 C179.33,38.46 184.12,35.9 185.13,29.46 C188.94,22.76 190.87,14.15 197.88,9.96 C201.76,7.22 206.41,8.09 210.86,8.03 C216.34,10.15 221.14,14.45 222.99,20.08 L223.35,76.62 C220.16,80.29 214.87,78.04 210.6,78.65 C206.6,79.84 204.46,76.02 205.38,72.5 C205.4,63 204.97,53.5 204.62,44 C200.02,52.23 196.65,61.3 190.74,68.69 C187.26,73.28 181.81,72.65 176.81,72.56 C168.3,69.43 165.59,60.03 161.57,52.76 C160.17,50.43 158.04,44.96 157.06,44.48 L156.48,75.74 C155.37,79.76 151.44,78.55 148.22,78.65 C145.57,78.12 141.35,79.81 139.52,77.69 ZM142.29,76.54 C139.49,75.86 143.15,78.08 142.29,76.54 ZM211.88,76.52 C204.84,76.51 209.4,76.91 213.17,76.77 L211.88,76.52 ZM153.83,75.38 C152.4,74.73 154.57,77.96 153.83,75.38 ZM140.55,74.23 C139.13,73.58 141.29,76.81 140.55,74.23 ZM151.91,74.76 C152.49,60.63 152.37,46.48 152.58,32.34 C155.69,30.98 157.65,35.78 158.79,38.14 C161.81,44.32 164.65,50.62 168.45,56.37 C165.83,47.35 159.79,39.32 156.33,30.66 C155.3,25.29 161.34,28.77 161.49,32.28 C165.63,40.97 170.7,49.33 173.77,58.46 C169.53,58.81 166.4,52.99 170.26,60.84 C172.39,65.69 177.73,70.83 183.37,68.59 C187.53,67.41 190.45,63.56 191.95,59.62 C194.05,54.9 199.21,46.26 198.71,44.37 C194.69,48.42 194.77,56.35 189.8,59 C185.51,54.68 195.63,45.42 196.66,39.62 C198.59,36.9 203.59,21.84 205.3,30.46 C202.87,36.87 208.2,29.04 208.79,34.56 C209.01,48 208.53,61.49 209.71,74.9 C212.76,74.49 217.43,75.7 219.52,74.33 L219.52,21.23 C216.84,15.08 210.24,10.14 203.41,11.97 C199.14,13.37 195.76,16.05 194.05,20.37 C189.91,26.61 187.91,34.09 183.89,40.29 C182.26,45.55 175.98,37.99 178.95,44 C181.4,49.61 175.13,49.56 174.58,44.76 C172.53,40.59 164.96,25.69 169.32,36.69 C169.67,42.02 180.34,50.29 175.47,53.85 C171.73,53.54 171.65,48.62 169.66,46.12 C165.96,38.52 161.47,31.15 158.64,23.25 C163.01,21.86 167.55,32.25 163.54,23.25 C158.44,17.47 164.14,15.47 166.93,20.55 C170.75,25.3 171.38,32.06 174.98,37.08 C180.74,45.21 172.54,29.65 170.82,25.81 C168.51,20.01 164.53,14.37 158.48,12.18 C154.69,10.66 150.8,12.26 147.65,14.55 C143.44,17.61 141.74,23.09 142.44,28.16 L142.25,73.79 C143.92,76.75 148.51,74.47 151.42,75.19 L151.64,75.19 L151.91,74.76 ZM176.77,66.87 C174.15,66.11 171.11,62.2 173.03,59.94 C176.02,58.93 177.31,64.41 180.91,63.63 C183.85,64.07 187.5,57.47 189.21,61.2 C187.75,65.71 183.18,68.66 178.55,67.64 L176.77,66.87 ZM181.29,65.58 C175.65,65.5 183.32,66.36 181.29,65.58 ZM178.06,65 C175.27,64.32 178.93,66.54 178.06,65 ZM185.46,51.68 C187.38,44.78 191.87,38.76 194.77,32.21 C196.35,29.49 200.01,18.19 203.25,24.56 C198.18,34.33 193.42,44.27 187.97,53.84 C185.86,53.7 184.33,54.69 185.46,51.68 ZM181.96,48.45 C181.93,45.27 184.72,42.21 185.77,39.07 C189.36,31.51 193.37,24.17 197.52,16.91 C203.61,17.05 196.89,24.91 196.11,27.51 C192.43,34.75 188.74,41.98 185.06,49.22 C184.11,48.91 182.04,49.97 181.96,48.45 ZM155.11,51.68 L155.17,39.41 C159.01,38.59 152.51,32.11 154.6,39.12 C154.62,50.86 154.56,62.6 154.11,74.33 C154.92,66.8 155.06,59.24 155.11,51.68 ZM181.86,70.75 C173.6,70.87 183.14,71.21 182.6,70.89 L182.03,70.78 L181.86,70.75 ZM140.6,36.38 C140.4,30.09 140.38,32.62 140.4,37.39 L140.4,50.67 C140.62,45.91 140.79,41.15 140.6,36.38 ZM206.96,42.73 C206.55,37.09 206.81,46.24 206.74,48.07 C206.62,53.92 207.32,43.16 206.96,42.73 ZM176.33,42.49 C174.91,41.84 177.07,45.07 176.33,42.49 ZM200.75,41.83 C200.96,38.97 198.47,45.58 200.59,42.63 L200.75,41.83 ZM181.07,37.66 C174.77,40.09 185.15,40.95 181.87,37.79 L181.3,37.69 L181.07,37.66 ZM201.73,39.61 C200.3,38.95 202.46,42.18 201.73,39.61 ZM202.3,38.45 C200.88,37.8 203.04,41.03 202.3,38.45 ZM206.86,38.02 C209.25,29.97 201.21,41.18 206.51,39.41 L206.51,39.41 L206.86,38.02 ZM202.88,37.3 C201.45,36.64 203.62,39.87 202.88,37.3 ZM203.46,36.14 C202.03,35.49 204.2,38.72 203.46,36.14 ZM204.03,34.99 C202.61,34.33 204.77,37.57 204.03,34.99 ZM204.61,33.83 C203.18,33.18 205.35,36.41 204.61,33.83 ZM167.06,29.83 C164.95,26.95 167.77,33.99 167.06,29.83 ZM165.95,28.06 C164.52,27.41 166.68,30.64 165.95,28.06 ZM221.38,23.98 C220.94,19.26 221.02,33.07 221.47,25.49 L221.38,23.98 ZM140.58,24.27 C139.91,20.91 140.56,32.52 140.58,24.27 ZM162.48,11.33 C159.68,10.65 163.35,12.87 162.48,11.33 ZM161.33,10.75 C158.53,10.08 162.2,12.29 161.33,10.75 ZM155.02,9.63 C150.67,9.41 155.27,10.56 155.02,9.63 ZM157.63,9.6 C151.98,9.52 159.66,10.38 157.63,9.6 ZM207.55,9.58 C199.16,9.54 210.05,10.3 207.55,9.58 ZM231.85,77.7 C230.03,74.87 231.52,70.82 230.99,67.51 L230.73,30.99 C232.85,27.62 236.5,27.94 240.02,27.94 C243.32,27.22 247.71,27.99 248.08,31.86 L248.08,76.86 C244.42,80.24 238.99,78.02 234.47,78.65 C233.35,78.66 232.37,78.97 231.85,77.7 ZM244.33,74.63 C245.04,67.73 244.16,60.4 244.27,53.35 L243.87,32.63 C241.15,32.97 236.39,30.17 235.5,33.93 C235.47,47.68 235.14,61.45 235.39,75.19 C238.16,74.79 242.13,75.98 244.33,74.63 ZM233.77,34.36 C234.71,27.56 231.39,33.81 232.52,37.2 L232.69,74.9 C233.03,61.39 233.3,47.87 233.77,34.36 ZM246.21,38.44 C246.11,34.89 245.98,28.72 246.02,35.66 L246.02,58.17 C246.23,51.59 246.39,45.01 246.21,38.44 ZM235.2,30.37 C232.4,29.7 236.07,31.91 235.2,30.37 ZM244.91,30.18 C242.34,28.83 238.32,30.16 235.21,29.79 C237.35,29.7 244.61,31.71 244.91,30.18 ZM256.81,78.13 C254.47,74.29 260.21,69.66 262.02,66.35 C269.77,55.82 277.57,45.31 284.88,34.47 C281.24,35.18 276.09,37.63 273.35,33.78 C270.03,28.76 267.46,23.31 263.26,18.89 C260.32,15.16 256.56,11.02 256.74,6.03 C261.95,4.09 267.77,5.18 273.14,5.42 C278.36,9.11 280.71,16.3 285.18,21.02 C291.25,34.85 297.03,16.37 302.78,11.47 C305.01,5.06 311.25,4.16 317.35,5.29 C320.13,5.43 326.03,4.13 323.92,8.84 C322.77,14.13 317.28,17.02 315.04,21.84 C308.64,31.15 301.57,40 295.54,49.55 C299.12,48.37 303.91,45.57 306.93,49.41 C312.12,58.14 319.08,66.04 324.25,74.9 C325.44,79.32 319.85,78.54 317.05,78.53 C312.46,78.49 306.56,79.63 303.98,74.76 C299.65,68.77 295.46,62.67 290.97,56.8 C284.79,59.63 283.48,67.31 279.33,72.19 C277.04,77.62 271.91,79.61 266.5,78.65 C263.34,78.32 259.7,79.31 256.81,78.13 ZM266.71,77.12 C260.59,76.99 268.37,77.94 266.71,77.12 ZM260.78,76.06 C259.96,72.55 261.18,69.61 258.18,75.73 C255.46,77.03 264.02,77.72 260.78,76.06 ZM321.95,76.03 C317.68,66.91 310.09,59.79 305.17,51.03 C300.21,45.79 294.11,57.12 289.96,53.24 C294.32,46.43 299.32,40.04 304.13,33.54 C299.89,36.48 298.72,29.04 296.89,30.26 C292.88,31.74 294.32,24.77 290.27,29.51 C290.22,31.94 287.47,34.68 285.82,37.14 L276.84,49.51 C280.9,49.52 283.05,53.68 286.17,55.74 C285.53,59.43 290.4,52.84 292.58,55.35 C298.24,62.2 302.21,70.69 308.89,76.52 C313.05,77.4 317.63,76.66 321.95,76.92 L321.95,76.35 L321.95,76.03 ZM270.39,75.2 C275.22,72.13 278.56,64.48 283.05,59.99 C285.76,57.03 281.95,54.71 279.81,52.95 C273.85,50.37 270.95,64.04 266.29,67.28 C264.73,69.65 260.09,73.77 263.95,75.82 C266.09,75.57 268.23,75.28 270.39,75.2 ZM276.94,71.66 C276.28,69.76 275.28,75 276.94,71.66 ZM278.67,69.35 C278.01,67.46 277.01,72.7 278.67,69.35 ZM282,33.11 C289.25,32.81 280.1,28.2 280.64,32.78 C277.61,34.62 274.58,29.5 272.9,30.07 C274.39,34.05 278.62,34.4 282,33.11 ZM306.38,26.95 C309.58,20.92 316.76,15.73 318.23,9.45 C312.68,11.44 309.02,21.37 304.21,26.23 C302.98,27.83 298.31,32.95 303.2,31.61 L306.38,26.95 ZM278.18,28.65 C273.9,22.79 269.34,17.03 265.55,10.88 C262.23,6.97 260.63,9.11 264.04,12.66 C268.74,19.06 271.97,26.94 279.04,31.16 L278.9,30.3 L278.18,28.65 ZM288.11,28.9 C286.05,27.81 287.05,33.3 288.11,28.9 ZM283.23,25.12 C278.38,19.97 276.3,12.67 270.3,8.61 C269.86,15.29 277.98,19.6 280.76,25.29 C282.82,31.85 288.38,29.17 283.23,25.12 ZM297.71,27.87 C301.72,24.08 303.94,18.2 308.27,14.4 C315.02,9.62 310.16,6.46 306.71,12.06 C305.73,16.36 293.07,26.98 297.71,27.87 ZM321.95,8.14 C321.42,6.19 314.46,6.98 313.54,7.63 C313.83,9.73 320.39,5.27 320.13,9.69 C319.77,13.18 321.91,9.48 321.95,8.14 ZM267.92,8.68 C268.47,5.11 261.66,7.66 267.48,10.34 L267.92,8.68 ZM259.43,7.29 C258.01,6.63 260.17,9.87 259.43,7.29 ZM272.13,7.29 C269.33,6.61 273,8.83 272.13,7.29 ZM262.66,6.71 C257.01,6.64 264.69,7.49 262.66,6.71 ZM271.01,6.75 C266.67,6.53 271.26,7.67 271.01,6.75 ZM333.42,77.7 C331.6,74.87 333.08,70.82 332.56,67.51 L332.3,30.39 C335.27,26.46 340.69,28.6 344.95,27.84 C348.63,27.17 350.58,31.55 349.76,34.71 L349.6,77.12 C346.57,80.07 341.85,78.03 338.04,78.64 C336.51,78.34 334.24,79.46 333.42,77.7 ZM339.11,76.57 C334.76,76.36 339.36,77.5 339.11,76.57 ZM346.61,76.57 C342.26,76.36 346.86,77.5 346.61,76.57 ZM347.74,74.51 C347.32,70.05 347.31,79.36 347.74,74.51 ZM334.5,64.66 C334.2,57.76 334.31,65.04 334.29,67.98 C334.33,70.14 334.18,78.85 334.46,72.6 C334.62,69.96 334.62,67.3 334.5,64.66 ZM345.76,72.6 C346.82,64.13 345.79,55.46 346.03,46.92 L345.9,32.78 C342.72,32.84 339.15,30.93 336.38,33.11 C336.52,46.69 336.1,60.38 336.59,73.91 C337.83,76.75 342.57,74.29 345.28,74.9 L345.76,72.6 ZM335.61,31.22 C335.48,28.01 332.91,35.84 334.14,38.49 L334.34,57.01 L334.67,32.26 L335.61,31.22 ZM346.48,30.18 C343.81,28.83 339.7,30.15 336.49,29.79 C337.43,29.61 346.4,31.7 346.48,30.18 ZM358.23,77.7 C356.42,74.86 357.94,70.82 357.44,67.51 L357.44,20.66 C359.54,14.84 364.18,9.81 370.14,8.01 C374.77,8.13 379.71,7.13 383.57,10.43 C391.59,17.08 393.95,28.15 399.75,36.53 C406.27,26.95 408.82,13.29 420.35,8.03 C424.87,8.06 429.57,7.3 433.52,10.02 C438.33,12.85 442.51,18.21 441.71,24.12 L442.07,76.45 C439.96,80.27 435.2,78.09 431.65,78.64 C427.6,79.79 423.1,77.28 423.96,72.68 L424.16,42.03 C419.4,51.38 415.14,61.29 409.1,69.78 C405.82,72.06 401.44,73.08 397.53,72.6 C393.73,72.53 391.04,70.44 388.79,67.55 C384.47,62.24 382.34,55.37 378.92,49.41 C377.51,47 375.09,39.95 375.65,46.62 C375.2,56.77 374.98,66.93 375.04,77.08 C371.92,80.1 367.08,78.03 363.14,78.64 C361.56,78.28 359.07,79.56 358.23,77.7 ZM361,76.54 C358.2,75.86 361.87,78.08 361,76.54 ZM371.15,76.52 C362.89,76.64 372.42,76.98 371.88,76.66 L371.31,76.55 L371.15,76.52 ZM438.68,76.54 C432.56,76.41 440.35,77.37 438.68,76.54 ZM440.11,53.98 C440.03,51.22 439.89,43.24 439.93,50.09 L439.93,76.06 C440.13,68.7 440.29,61.34 440.11,53.98 ZM369.42,74.82 C373.64,74.78 370.72,68.7 371.58,65.81 L371.58,31.33 C376.37,32.56 377.53,40.15 380.58,43.92 C384.57,50.91 387.76,58.52 391.94,65.33 C394.33,68.05 397.43,69.03 400.97,68.93 C406.91,68.21 410.02,61.58 411.98,56.62 C412.23,56.68 405.88,61.25 407.35,55.72 C411.67,46.15 416.85,36.8 421.5,27.31 C427.91,29.26 417.61,43.88 424.59,33.1 C427.76,29.27 428.46,36.75 427.93,39.12 L428.42,74.9 C431.56,74.49 435.32,76.29 438,74.23 L438.24,21.81 C435.83,16.01 430.46,11.04 423.88,11.72 C420.59,11.8 417.23,14.15 415.12,16.55 C411.89,20.71 407.65,33.21 413.09,22.18 C413.36,19.39 417.75,14.77 418.01,19.5 C417.08,25.62 416.25,23.73 420.74,23.44 C421.44,29.1 414.51,37.19 412.29,43.54 C411.13,46.62 405.38,58.43 404.1,51.96 C406.56,43.61 412.63,36.45 414.85,27.99 C411.28,31.91 408.69,41.12 404.97,46.57 C399.51,54.21 400.13,43.33 404.17,39.74 C406.27,36.14 412.47,22.22 406.21,32.8 C403.51,35.58 403.94,44.38 398.56,42.65 C396.12,40.81 395.32,36.57 393.48,33.83 C391.86,30.07 382.71,12.92 387.79,24.41 C391.59,32.15 395.51,39.83 399.39,47.53 C396.27,52.37 393.99,45.75 392.63,43.03 C389.72,37.45 386.66,31.94 383.61,26.43 C385.84,35.14 392.26,42.3 395.21,50.67 C396.58,56.18 390.72,53.4 390.4,49.55 C385.99,40.67 380.48,32.01 377.35,22.68 C382.03,21.94 384.31,27.84 381.85,20.39 C378.92,13.65 387.15,21 384.82,17.72 C382.28,12.83 376.55,10.53 371.36,11.78 C364.48,14.01 361.09,20.65 360.62,27.5 C360.62,43.18 360.62,58.85 360.62,74.52 C363.37,75.62 366.55,75.04 369.42,74.82 ZM395.98,67.05 C393.09,66.38 390.67,63.01 391.2,59.99 C394.01,57.92 396,63.91 398.99,63.65 C402.24,65.47 407,56.59 407.83,61.51 C407.92,64.33 404.22,68.13 401.15,67.65 C399.41,67.63 397.67,67.46 395.98,67.05 ZM400.28,65.61 C395.93,65.39 400.53,66.53 400.28,65.61 ZM396.78,65 C393.98,64.32 397.65,66.54 396.78,65 ZM403.13,65 C400.33,64.32 404,66.54 403.13,65 ZM383.53,47.64 C381.24,41.54 376.15,36.19 375.05,29.89 C377.27,22.75 382.79,38.23 384.63,40.77 C385.51,45.47 395.44,55.99 390.67,58.46 C387.09,58.36 386.93,52.71 384.83,50.21 L383.53,47.64 ZM426.21,74.23 C424.79,73.58 426.95,76.81 426.21,74.23 ZM400.29,70.75 C393.24,70.72 402.51,71.5 400.29,70.75 ZM414.37,52.58 C416.58,49.1 423.48,33.91 417.53,44.01 C415.86,45.96 408.37,63.15 414.37,52.58 ZM374.92,39.49 C375.11,35.49 372.25,34.47 373.34,39.99 C373.17,42.88 373.51,40.28 374.92,39.49 ZM400.87,39.57 C400.45,37.16 396.98,42.37 400.87,39.57 ZM421.02,38.45 C419.59,37.8 421.76,41.03 421.02,38.45 ZM425.82,37.25 C425.78,30.89 422.13,44.63 425.82,37.25 ZM440.11,28.88 C439.81,21.99 439.92,29.26 439.9,32.2 C439.94,34.37 439.79,43.07 440.06,36.82 C440.22,34.18 440.23,31.53 440.11,28.88 ZM416.4,30.37 C414.98,29.72 417.14,32.95 416.4,30.37 ZM417.56,28.06 C416.13,27.41 418.29,30.64 417.56,28.06 ZM418.13,26.91 C416.71,26.26 418.87,29.49 418.13,26.91 ZM383.51,25.76 C382.08,25.1 384.25,28.33 383.51,25.76 ZM416.4,25.18 C414.98,24.52 417.14,27.76 416.4,25.18 ZM359.28,24.3 C358.86,19.85 358.85,29.15 359.28,24.3 ZM408.32,24.6 C406.9,23.95 409.06,27.18 408.32,24.6 ZM415.25,22.29 C413.82,21.64 415.99,24.87 415.25,22.29 ZM416.4,19.98 C414.98,19.33 417.14,22.56 416.4,19.98 ZM439.49,19.98 C438.06,19.33 440.22,22.56 439.49,19.98 ZM375.77,9.58 C368.73,9.56 373.29,9.97 377.06,9.82 L375.77,9.58 ZM425.97,9.57 C417.71,9.69 427.25,10.04 426.7,9.71 L426.14,9.61 L425.97,9.57 ZM463.42,78.03 C457.6,77.14 453.17,72.34 450.44,67.46 C447.73,61.58 447.63,54.67 449.95,48.69 C451.07,45.87 456.95,42.92 453.6,40.22 C449.88,36.02 448.02,30.77 448.31,25.22 C448.35,19.89 450.94,14.48 454.74,10.76 C459.37,6.46 465.71,4.73 471.92,5.38 L500.53,5.27 C504.2,8.41 501.98,13.64 502.58,17.87 C503.49,22.53 497.97,23.72 494.46,23.12 L469.29,22.5 C463.94,26.64 470.57,29.8 474.88,28.45 C481.48,28.62 488.22,28.14 494.74,28.72 C500.83,30.46 504.78,36.95 503.73,43.17 C503.99,49.66 497.4,56.3 490.75,55.37 L468.28,55.86 C464.96,59.31 469.76,62.08 473.18,61.13 L500.94,61.63 C504.12,65.03 501.95,70.18 502.58,74.4 C503.59,78.59 498.38,79.07 495.4,78.64 C485.02,78.38 474.56,78.99 464.24,78.19 L463.67,78.08 L463.42,78.03 ZM467.82,76.53 C459.43,76.48 470.31,77.24 467.82,76.53 ZM499.5,76.54 C496.7,75.86 500.37,78.08 499.5,76.54 ZM461.99,75.38 C459.19,74.71 462.86,76.93 461.99,75.38 ZM498.77,74.28 C499.07,70.85 500.83,63.93 495.15,64.8 L466.92,64.8 C464.73,62.5 461.03,58.75 463.75,55.68 C466.19,50.85 471.18,51.82 475.54,51.82 C481.33,51.63 487.32,52.21 492.98,51.53 C497.32,49.99 500.17,45.69 500.15,41.12 C499.63,34.94 493.63,31.09 487.86,31.93 C480.79,31.68 473.37,32.4 466.5,31.55 C461.96,29.3 461.98,22.86 465.83,19.79 C476.75,19.88 487.67,19.56 498.58,19.03 C498.07,15.94 499.11,11.25 497.68,9.11 C487.44,9.15 477.11,8.63 466.93,9.01 C461.49,10.66 455.77,13.53 453.91,19.29 C451.54,23.96 451.8,30.09 454.37,34.63 C455.94,37.65 459.18,40.75 462.67,38.57 C468.05,37.1 473.6,37.42 467.03,35.71 C466.13,31.35 471.54,32.58 474.34,32.49 C480.27,33 486.6,31.31 492.19,33.61 C493.07,38.11 487.4,36.96 484.61,36.77 C479.89,36.09 475.23,36.94 470.55,37.53 L485.88,37.68 C487.88,41.63 481.71,42.39 478.92,41.51 C475.1,41.4 467.32,41.9 465.36,42.11 C472.17,42.41 479.17,41.65 485.84,43 C486.22,48.19 480.1,45.82 476.96,46.33 C470.72,46.42 464.47,46.58 458.43,44.72 C454.4,48.46 451.55,53.81 452.37,59.39 C452.48,64.68 455.57,69.54 460.12,72.27 C467.53,76.95 476.53,74.47 484.77,75.14 L498.42,75.19 L498.62,74.65 L498.77,74.28 ZM477.33,50.52 L466.8,50.35 C467.67,43.94 479.53,48.8 484.55,47.41 C487.19,48.19 493.37,45.47 492.19,50.03 C488.04,51.81 481.99,50.04 477.33,50.52 ZM474.75,48.81 C466.02,48.83 471.95,49.18 476.32,49.05 L476.32,49.05 L474.75,48.81 ZM481.66,48.83 C474.61,48.79 483.88,49.57 481.66,48.83 ZM487.43,48.83 C480.38,48.79 489.65,49.57 487.43,48.83 ZM500.65,71.01 C499.88,69.07 500.68,76.13 500.65,71.01 ZM468.92,62.69 C466.12,62.01 469.79,64.23 468.92,62.69 ZM450.48,56.01 C450.08,50.83 450.22,61.69 450.33,60.48 C450.59,59.01 450.66,57.5 450.48,56.01 ZM492.58,53.46 C489.78,52.78 493.45,55 492.58,53.46 ZM477.33,44.18 C473.75,43.84 461.43,44.56 471.13,44.38 C473.2,44.37 482.51,44.42 480.36,44.35 L477.33,44.18 ZM483.34,44.22 C480.55,43.55 484.21,45.76 483.34,44.22 ZM464.06,43.65 C458.42,43.57 466.09,44.43 464.06,43.65 ZM461.79,42.35 C459.21,38.2 453.53,43.85 460.79,43.22 C462.19,43.49 462.24,43.69 461.79,42.35 ZM464.3,40.18 C461.5,39.51 465.17,41.72 464.3,40.18 ZM475.17,39.44 C481.47,38.7 473,39.07 470.84,38.96 C465.72,38.81 464.48,40.54 470.39,39.85 C471.99,39.78 473.59,39.67 475.17,39.44 ZM483.1,39.61 C477.46,39.53 485.14,40.39 483.1,39.61 ZM501.81,39.03 C500.38,38.37 502.55,41.61 501.81,39.03 ZM484.23,34.37 C480.85,34.16 469.92,34.41 469.97,34.56 L489.6,34.56 L484.23,34.37 ZM495.46,30.95 C492.66,30.27 496.33,32.49 495.46,30.95 ZM493.15,30.37 C490.36,29.7 494.02,31.91 493.15,30.37 ZM450.48,24.55 C450,20.04 450.2,34.78 450.58,26.14 L450.48,24.55 ZM492.34,21.09 C487.86,20.87 479.44,21.12 476.9,21.28 L497.68,21.28 L492.34,21.09 ZM500.66,17.68 C499.23,17.02 501.4,20.25 500.66,17.68 ZM500.69,10.71 C500.25,5.99 500.33,19.79 500.78,12.22 L500.69,10.71 ZM466.64,7.32 C462.3,7.1 466.89,8.25 466.64,7.32 ZM521.05,77.24 C515.49,75.19 511.38,70.38 508.95,65.08 C508.36,60.86 508.56,56.15 508.86,51.86 C508.84,47.55 517.13,43.45 513.33,40.05 C507.67,35.64 508.77,27.99 508.18,21.65 C510.62,15.88 513.71,9.71 519.92,7.36 C524.34,4.17 530.1,6.17 535.19,5.54 L561.38,5.31 C564.67,9.14 562.48,14.6 563.08,19.23 C562.15,24.09 555.88,23.28 552.12,23.1 L528.84,22.52 C525.63,24.21 526.93,28.46 530.36,28.53 C538.15,28.64 546.06,28.15 553.79,28.63 C557.85,29.59 560.96,32.81 562.73,36.41 C564.65,41.96 563.59,49.09 558.58,52.61 C554.24,56.96 547.3,55.18 541.71,55.57 C536.98,55.96 531.21,54.45 527.3,57.29 C526.32,62.54 533.18,60.76 536.34,61.07 C544.4,61.3 552.67,60.75 560.6,61.47 C565.16,64.66 562.44,70.82 563.17,75.47 C561.77,79.07 557.91,78.9 554.57,78.64 C544.29,78.46 533.89,78.88 523.69,78.33 L521.05,77.24 ZM527.25,76.53 C520.2,76.49 529.47,77.27 527.25,76.53 ZM554.4,76.49 C548.58,76.3 542.74,76.48 536.92,76.68 L560,76.68 L554.4,76.49 ZM552.07,74.82 C555.2,74.28 560.62,76.06 559.25,70.99 C561.33,64.81 554.64,64.26 550.42,64.8 L526.97,64.8 C523.43,63 521.6,58.38 523.98,54.96 C526.42,50.26 532.44,52.3 536.78,51.86 C542.16,51.63 547.8,52.25 553.03,51.5 C557.6,49.18 560.68,44.48 559.71,39.36 C557.71,35.13 553.67,30.8 548.46,31.91 L526.7,31.91 C524.26,29.79 521.54,27.3 523.04,23.84 C524.01,19.84 528.16,19 531.72,19.59 L557.89,19.89 C561.12,16.97 559,12.82 558.85,9.12 C547.35,9.3 535.67,8.75 524.29,9.39 C518.65,12.08 513.48,17.43 512.17,23.54 C511.9,27.57 512.21,31.46 514.49,34.91 C515.37,38.74 519.96,40.33 523.3,38.61 C530.62,36.69 538.36,38.13 545.86,37.68 C547.16,42.26 541.63,41.68 538.65,41.61 C533.68,41.51 517.87,42.03 530.76,42.28 C535.62,42.32 540.47,42.29 545.32,42.3 C547.73,46.92 541.38,46.12 538.52,45.96 C532.41,45.52 526.02,46.52 520.09,45.15 C516.95,43.8 515.13,48.57 513.95,50.92 C511.49,54.23 512,58.46 512.49,62.26 C514.87,70.62 523.74,76.17 532.3,75.14 C538.89,75.18 545.49,75.13 552.07,74.82 ZM537.22,50.52 C533.56,50.06 529.21,51.19 525.97,49.75 C525.42,46.65 531.48,47.59 533.96,47.49 L552.21,47.49 C552.93,54.15 540.55,49.02 537.22,50.52 ZM533.89,48.81 C526.69,48.71 528.65,49.23 533.74,49.04 C535.74,49 536.95,49.17 533.89,48.81 ZM541.39,48.82 C533.13,48.94 542.66,49.28 542.12,48.96 L541.55,48.85 L541.39,48.82 ZM547.46,48.83 C539.07,48.78 549.95,49.54 547.46,48.83 ZM536.92,36.55 C533.82,35.83 528.62,37.56 526.92,35.2 C526.69,30.78 532.75,33.02 535.62,32.49 C540.76,32.76 546.37,31.94 551.23,32.9 C554.89,39.17 543.91,36.47 540.86,36.68 L538.93,36.61 L536.92,36.55 ZM544.85,34.37 C540.38,34.15 531.96,34.4 529.42,34.56 L550.19,34.56 L544.85,34.37 ZM561.25,73.65 C559.82,73 561.99,76.23 561.25,73.65 ZM561.26,68.74 C560.84,64.28 560.83,73.58 561.26,68.74 ZM561.25,66.15 C559.82,65.5 561.99,68.73 561.25,66.15 ZM560.67,64.42 C559.25,63.77 561.41,67 560.67,64.42 ZM559.71,63.36 C553.18,58.68 561.99,67.26 559.71,63.36 ZM548.6,63.25 C541.55,63.22 550.82,64 548.6,63.25 ZM533.03,62.66 C524.3,62.68 530.23,63.03 534.61,62.9 L534.61,62.9 L533.03,62.66 ZM510.48,60.66 C510.06,56.2 510.05,65.51 510.48,60.66 ZM510.47,54.61 C509.04,53.96 511.21,57.19 510.47,54.61 ZM528.97,54.07 C524.62,53.85 529.22,54.99 528.97,54.07 ZM551.78,53.46 C546.14,53.38 553.81,54.24 551.78,53.46 ZM541.97,44.22 C536.33,44.15 544,45 541.97,44.22 ZM523.5,43.62 C523.02,41.88 516.38,38.23 516.43,42.43 C515.56,43.03 527.96,44.22 523.5,43.62 ZM561.84,42.19 C561.42,37.73 561.41,47.04 561.84,42.19 ZM525.81,40.18 C520.17,40.11 527.84,40.97 525.81,40.18 ZM561.83,39.61 C560.4,38.95 562.57,42.18 561.83,39.61 ZM528.39,39.64 C524.05,39.42 528.64,40.57 528.39,39.64 ZM542.54,39.61 C536.9,39.53 544.58,40.39 542.54,39.61 ZM535.62,38.99 C529.51,38.75 526.28,39.44 533.74,39.21 C535.8,39.2 540.18,39.3 535.62,38.99 ZM528.36,29.79 C525.56,29.12 529.23,31.34 528.36,29.79 ZM510.47,28.64 C509.04,27.99 511.21,31.22 510.47,28.64 ZM524.89,24.84 C524.11,22.9 524.92,29.96 524.89,24.84 ZM510.46,21.96 C509.69,20.02 510.49,27.07 510.46,21.96 ZM547.13,21.09 C540.84,20.91 534.55,21.07 528.26,21.28 L553.65,21.28 L547.13,21.09 ZM561.25,17.68 C559.82,17.02 561.99,20.25 561.25,17.68 ZM561.28,12.16 C560.88,6.97 561.02,17.83 561.13,16.62 C561.39,15.15 561.46,13.64 561.28,12.16 ZM529.28,7.27 C522.23,7.26 526.8,7.66 530.57,7.52 L529.28,7.27 ZM39.99,44.55 C37.67,41.82 39.45,37.51 38.89,34.1 L38.89,19.69 C41.03,16.75 44.6,17.26 47.64,18.18 C53.78,22.38 60.99,25.1 66.3,30.41 C67.82,36.9 58.77,37.72 55.03,41.03 C50.71,43.01 45.55,47.19 40.7,45.33 L40.31,44.91 L39.99,44.55 ZM48.76,42.33 C54.7,38.26 63.2,36.41 64.22,31.19 C61.84,28.07 61.18,28.48 57.67,26.26 C53.16,24.44 49.39,20.27 44.72,19.22 C38.86,18.19 40.95,24.38 40.56,27.83 C40.99,33.18 39.37,38.9 41.43,43.96 C43.97,43.68 46.53,43.76 48.76,42.33 ZM235.55,22.05 C231.13,20.65 230.27,15.66 230.77,11.6 C231.81,9.09 234.1,5.77 237.15,5.36 C241.47,3.72 245.6,6.8 248.37,9.89 C247.9,13.94 250.05,19.22 245.37,21.44 C242.61,23.62 238.48,24.06 235.55,22.05 ZM243.54,20.62 C247.34,18.92 248.01,12.82 245.56,9.59 C243.69,6.86 239.62,6.16 236.76,7.21 C234.08,9.55 230.15,12.93 232.9,16.68 C234.27,20.74 239.85,23.1 243.54,20.62 ZM335.61,21.38 C331.98,18.88 331.23,13.4 333.31,9.87 C335.36,4.86 340.12,4.87 344.54,5.2 C348.67,7.61 351.19,11.74 350.23,16.49 C349.12,21.18 344.02,24.03 339.32,23.25 C337.52,23.7 336.8,22.47 335.61,21.38 ZM344.44,20.67 C348.95,18.92 349.86,13.05 347.03,9.6 C344.66,5.72 338.09,5.53 335.58,9.51 C333.31,11.41 333.32,16.31 335.28,18.38 C337.13,21.41 340.61,22.53 343.81,20.99 L344.32,20.73 L344.44,20.67 Z" opacity="1" style="fill:#000000;" />
</svg>